<svg xmlns="http://www.w3.org/2000/svg" width="1279.637" height="710.132" viewBox="0 0 1279.637 710.132">
    <defs>
        <style>
            .cls-1{fill:#ffa910}.cls-2{clip-path:url(#clip-path)}.cls-11,.cls-3,.cls-33{fill:#fff}.cls-3{stroke:rgba(0,0,0,0);stroke-miterlimit:10}.cls-4{fill:#30193b}.cls-5{fill:#ff97a6}.cls-6{fill:#7f65c1}.cls-7{fill:#59499e}.cls-8{fill:#3b2b5b}.cls-9{fill:#d5eaf5}.cls-10{fill:#d3e7f2}.cls-12{fill:#c95d77}.cls-13{fill:#ff5e4d}.cls-14{fill:#ff8980}.cls-15{fill:#aacbe8}.cls-16{fill:#80540a}.cls-17{fill:#a87c1b}.cls-18{fill:#ffcb48}.cls-19{fill:#ff9645}.cls-20{fill:#fc8077}.cls-21{fill:#ed5724}.cls-22{fill:#fcc324}.cls-23{fill:#ffd45b}.cls-24{fill:#d26528}.cls-25{fill:#402312}.cls-26{fill:#f68d1e}.cls-27{fill:#f9a223}.cls-28,.cls-31{fill:none;stroke-linecap:round;stroke-linejoin:round}.cls-29{fill:#fcb514}.cls-30{fill:#fdd600}.cls-31{stroke:#402312;stroke-width:2.178px}.cls-32,.cls-33{stroke:none}
        </style>
        <clipPath id="clip-path">
            <path id="BG" d="M0 0h1279.637v710.132H0z" class="cls-1" transform="translate(.363)"/>
        </clipPath>
    </defs>
    <g id="BG-2" class="cls-2" data-name="BG" transform="translate(-.363)">
        <path id="BG-3" d="M0 0h1279.637v710.132H0z" class="cls-1" data-name="BG" transform="translate(.363)"/>
        <path id="illustrasi-cliud" d="M0 285.526V117.919c.166-.144.32-.3.491-.441 7.65-6.38 20.214-9.323 31.469-7.438C34.885 98.87 47.9 89.461 63.2 87.547c14.78-1.84 30.673 3.442 38.761 12.66 1.695-19.856 5.492-41.832 25.123-55.772 16.326-11.6 43.051-15.686 66.5-10.178C211.349 38.43 227.3 47.65 238.7 60.1a50.243 50.243 0 0 1 21.964.1 49.087 49.087 0 0 1 9.594 3.342 108.338 108.338 0 0 1 6.367-10.555c16.524-24.1 43.9-42.127 75.118-49.461 34.168-8.026 73.1-2.07 96.883 14.824 28.6 20.308 34.134 52.325 36.6 81.25 26.22-5.919 43.221-3.534 54.021 2.931 7.173-1.469 15.123-.725 20.6 2.836 1.445-13.371 4-27.161 15.8-37.875 11.108-10.074 28.293-13.931 45.124-9.974 37.088 8.715 43.242 39.114 50.1 64.3 3.812-12.154 15.876-22.806 32.378-26.764 19.226-4.635 40.846.722 53.51 11.933 2.315-8.015 9.616-15.789 21.406-16.809 7.76-.658 15.575 2.019 19.769 6.537 1.908-17.848 50.922-39.386 74.748-34.789 52.045 10.043 56.044 41.725 50.991 60.683h26.654c5.532-7.674 15.907-13.531 27.617-15 14.777-1.84 30.674 3.441 38.759 12.661 1.695-19.856 5.491-41.835 25.123-55.776 16.326-11.594 43.052-15.685 66.505-10.174 17.763 4.171 33.708 13.392 45.108 25.844a50.271 50.271 0 0 1 21.964.1 48.8 48.8 0 0 1 9.594 3.344 107.877 107.877 0 0 1 6.367-10.556c16.519-24.1 43.9-42.127 75.118-49.463 34.167-8.023 73.1-2.07 96.885 14.826 28.6 20.308 34.132 52.325 36.6 81.25 26.222-5.918 43.222-3.537 54.021 2.931a32.989 32.989 0 0 1 13.659.006h7.268c1.526-12.468 4.51-25.087 15.471-35.045a44.624 44.624 0 0 1 20.19-10.192v208.161z" class="cls-3" transform="translate(-131.851 551.979)"/>
        <g id="illustrasi-hero">
            <g id="Group_1801" data-name="Group 1801">
                <path id="Path_2539" d="M69.8 217.592s5.477 39.529-8 79.5-37.975 59.7-44.47 62.465c0 0 3.557-13.11-13.871-15.852s-28.416 8.475-52.907-7.967c-21.366-14.345-26.049-38-26.9-43.8a.691.691 0 0 1 .975-.732c5.023 2.334 25.7 9.576 43.151-19.205 25.823-42.58 43.3-56.6 64.842-61.137s17.878-.8 17.878-.8z" class="cls-4" data-name="Path 2539"/>
            </g>
            <g id="Group_1803" data-name="Group 1803">
                <g id="Group_1802" data-name="Group 1802">
                    <path id="Path_2540" d="M-26.445 382.321c3.446-4.012 36.8-43.2 47.624-58.536 12.3-17.414 32.067-60.268 29.668-66.183-3.911-3.727-16.235-6.586-23.555-10.325-.239.315-12.118 3.749-20.634 10.4-13.272 10.356-39.439 101.362-46.364 116.934-1.923 2.887 1.014.653 1 .475 0-.156 57.89-89.623 57.89-89.623s-46.822 96.452-46.933 96.523c.166 1.214 1.302.532 1.304.335z" class="cls-5" data-name="Path 2540"/>
                </g>
            </g>
            <g id="Group_1805" data-name="Group 1805">
                <g id="Group_1804" data-name="Group 1804">
                    <path id="Path_2541" d="M32.793 242.4c2.563 1.442-18.388 3.989-26.9 10.633C-7.383 263.4-13.3 275.217-20.223 290.789c-.935 2.1 43.78 31.141 46.436 27.348 17.139-24.445 27.515-55.545 25.737-61.537-3.912-3.731-11.835-10.455-19.157-14.2z" class="cls-6" data-name="Path 2541"/>
                </g>
            </g>
            <g id="Group_1807" data-name="Group 1807">
                <g id="Group_1806" data-name="Group 1806">
                    <path id="Path_2542" d="M2.5 307.2s21.288 13.5 23.709 10.934c20.5-21.7 27.515-55.545 25.737-61.541-1.718-1.634-8.7-3-11.568-5.28-1.88-1.494 1.308 18.647-8.8 33.7C15.58 308.837 2.5 307.2 2.5 307.2z" class="cls-7" data-name="Path 2542"/>
                </g>
            </g>
            <g id="Group_1810" data-name="Group 1810">
                <g id="Group_1808" data-name="Group 1808">
                    <path id="Path_2543" d="M-48.666 381.516c-.328-1.3 4.7-4.854 6.535-5.438-.58.436-1.429 1.339-.642 1.792 1.155.659 3.629.008 4.548-1.2a12.177 12.177 0 0 1 .027 3.283c-.137 1.197-9.702 4.607-10.468 1.563z" class="cls-8" data-name="Path 2543"/>
                </g>
                <g id="Group_1809" data-name="Group 1809">
                    <path id="Path_2544" d="M-44.256 378.836c-.788-.458 1.267-2.169 1.844-2.6a11.933 11.933 0 0 1 2.089-1.008 1.869 1.869 0 0 0 .8-1l.923-.044a2.169 2.169 0 0 0 .14 1.718 3.154 3.154 0 0 1 .24.766c-.924 1.21-4.88 2.827-6.036 2.168z" class="cls-5" data-name="Path 2544"/>
                </g>
            </g>
            <g id="Group_1813" data-name="Group 1813">
                <g id="Group_1811" data-name="Group 1811">
                    <path id="Path_2545" d="M-27.578 393.218c1.288-.367 1.849-6.5 1.431-8.377-.084.712-.443 1.9-1.227 1.445-1.153-.666-1.825-3.137-1.246-4.53a12.171 12.171 0 0 0-2.853 1.621c-.963.712.878 10.704 3.895 9.841z" class="cls-8" data-name="Path 2545"/>
                </g>
                <g id="Group_1812" data-name="Group 1812">
                    <path id="Path_2546" d="M-27.469 388.056c.79.454 1.242-2.183 1.325-2.9a11.9 11.9 0 0 0-.175-2.314 1.847 1.847 0 0 1 .467-1.182l-.428-.821a2.159 2.159 0 0 1-1.552.74 3.1 3.1 0 0 0-.788.176c-.58 1.394.003 5.635 1.151 6.301z" class="cls-5" data-name="Path 2546"/>
                </g>
            </g>
            <g id="Group_1818" data-name="Group 1818">
                <g id="Group_1817" data-name="Group 1817">
                    <g id="Group_1816" data-name="Group 1816">
                        <path id="Path_2548" d="M87.868 146.748a2.064 2.064 0 0 0-1.851 1.565c-1.491 6.359-9.145 36.433-8.838 39.837.282 3.123-3.618 19.711 3.623 15.885 3.134-1.657 11.939-23.726 13.242-27.594 4.881-14.511 9.695-31.193-6.176-29.693z" class="cls-10" data-name="Path 2548"/>
                    </g>
                </g>
            </g>
            <g id="Group_1820" data-name="Group 1820">
                <g id="Group_1819" data-name="Group 1819">
                    <path id="Path_2549" d="M48 153.684c4.41 1.5 7.19 6.042 7.19 6.042l-23.8 25.944 5.581 23.445a2.892 2.892 0 0 0 3.175 2.19c4.232-.494 11.436-.21 20.193 2.885 13.312 2.466 19.2-38.87 19.2-38.87l9.607 10.032s-2.861 11.913-11.609 26.433c-2.613 4.332-5.186 7.852-8.194 10.222A75.965 75.965 0 0 1 65 238.846c-1.955 5.192-13.05 17.754-13.05 17.754.192 2.08-15.285 4.754-26.394-11.385.839-1.457 3.606-14.912 5.371-28.766-6.107-7.814-15.862-23.035-14.742-34.14C17.3 171.308 36.143 149.645 48 153.684z" class="cls-11" data-name="Path 2549"/>
                </g>
            </g>
            <g id="Group_1823" data-name="Group 1823">
                <g id="Group_1822" data-name="Group 1822">
                    <g id="Group_1821" data-name="Group 1821">
                        <path id="Path_2550" d="M50.726 157.533a.888.888 0 0 1-.411-.983c.237-.99.8-3.32 1.234-5.184 0 0 .694-2.854 2.16-3.455 0 0 .538.121.1.907 0 0 1.446-1.868 2.166-1.709s.368 1.194.368 1.194a.605.605 0 0 1 .83.3c.262.574-.964 3.993-1.922 5.245 0 0 1.1-1.328 1.407-.861s-1.731 3.188-2.746 3.565a10.305 10.305 0 0 0-1.354 1.286c-.258.346-1.217.062-1.832-.305z" class="cls-5" data-name="Path 2550"/>
                    </g>
                </g>
            </g>
            <g id="Group_1826" data-name="Group 1826">
                <g id="Group_1825" data-name="Group 1825">
                    <g id="Group_1824" data-name="Group 1824">
                        <path id="Path_2551" d="M92.549 147.84a.891.891 0 0 0 .74-.77c.133-1.006.521-1.569.785-3.468 0 0 .493-2.564-.864-3.386a4.625 4.625 0 0 0-3.45.094c-.45.436-.418 1.213-.642 1.531a1.671 1.671 0 0 0-.709.882c-.112.547.859 2.147 1.672 2.863 0 0 .477 1.269.65 1.883.119.415 1.115.491 1.818.371z" class="cls-5" data-name="Path 2551"/>
                    </g>
                </g>
            </g>
            <g id="Group_1827" data-name="Group 1827">
                <path id="Path_2552" d="M52.653 211.8s-3.794-.493-4.194 1.706c-.286 1.594 2.9 3.655 5.128 4.877.485.264 1.511.627 2.06-.274.152-.25-.314 1.17-.176 1.235 0 0-3.236 1.463-9.434-2.041a30.84 30.84 0 0 1-8.721-7.365c-.135-.235-.226-1.666 13.308-1.8 3.749-.038 2.029 3.662 2.029 3.662z" class="cls-8" data-name="Path 2552"/>
            </g>
            <g id="Group_1829" data-name="Group 1829">
                <g id="Group_1828" data-name="Group 1828">
                    <path id="Path_2553" d="M60.341 214.19c13.312 2.466 19.2-38.87 19.2-38.87l9.607 10.032s-2.861 11.913-11.609 26.433c-2.613 4.332-5.186 7.852-8.194 10.222A75.965 75.965 0 0 1 65 238.846c-1.955 5.192-13.05 17.754-13.05 17.754.061.641-1.542 2.1-6.812 1.552a15.988 15.988 0 0 1-6.148-1.657s13.869-7.428 18.99-18.86c6.62-14.768-1.699-24.879 2.361-23.445z" class="cls-10" data-name="Path 2553"/>
                </g>
            </g>
            <g id="Group_1830" data-name="Group 1830">
                <path id="Path_2554" d="M53.509 211.588s2.6 2.533 2.482 4.9c-.1 1.925-2.322 3.223-3.149 3.024 0 0 4.293.623 7.218-1.826 3.85-3.223 3.209-3.659 3.209-3.659s-4.613-3.945-9.117-4.918c-3.792-.822-.643 2.479-.643 2.479z" class="cls-8" data-name="Path 2554"/>
            </g>
            <g id="Group_1835" data-name="Group 1835">
                <g id="Group_1832" data-name="Group 1832">
                    <g id="Group_1831" data-name="Group 1831">
                        <path id="Path_2555" d="M53.28 204.768s-2.832 7.167-2.675 8.1 1.272 2.4 2.6.783 2.286-8.295 2.286-8.295z" class="cls-5" data-name="Path 2555"/>
                    </g>
                </g>
                <g id="Group_1834" data-name="Group 1834">
                    <g id="Group_1833" data-name="Group 1833">
                        <path id="Path_2556" d="M53.468 203.528s-2.655 7.343-2.5 8.277a1.557 1.557 0 0 0 2.864.67c1.329-1.625 1.846-8.358 1.846-8.358z" class="cls-12" data-name="Path 2556"/>
                    </g>
                </g>
            </g>
            <g id="Group_1836" data-name="Group 1836">
                <path id="Path_2557" d="M57.843 207.458s5.592-2.451 4.239-10.995-11.019-6.069-11.019-6.069 1.316-6.147-4.268-5.055-7.885 3.7-8.565 6.212c-.7 2.6 2.178 4.793 4.533 5.076 0 0-2.743 5.549-1.6 8.01 1.538 3.3 4 5.148 12.394 2.773z" class="cls-13" data-name="Path 2557"/>
            </g>
            <g id="Group_1838" data-name="Group 1838">
                <g id="Group_1837" data-name="Group 1837">
                    <path id="Path_2558" d="M58.575 199.973c-2.044-2.67-8.312-1.465-9.377-.668-1.169.869-1.1 2.618-1.071 3.924s1.223 6.844 5.425 7.363c7.906.977 5.023-10.619 5.023-10.619z" class="cls-5" data-name="Path 2558"/>
                </g>
            </g>
            <g id="Group_1839" data-name="Group 1839">
                <path id="Path_2559" d="M51.063 190.394a6.775 6.775 0 0 0-.364-3.269 2.763 2.763 0 0 0-.972-1.167 2.8 2.8 0 0 0-1.452-.386 10.461 10.461 0 0 0-3.171.641 13.633 13.633 0 0 0-2.98 1.314 8.164 8.164 0 0 0-2.367 2.09 6.635 6.635 0 0 0-.767 1.352 3.438 3.438 0 0 0-.339 1.427 3.538 3.538 0 0 0 1.362 2.515 6.143 6.143 0 0 0 2.8 1.325l.029.008a.39.39 0 0 1 .314.447.473.473 0 0 1-.039.115 24.469 24.469 0 0 0-1.581 3.791 11.023 11.023 0 0 0-.485 2 4.364 4.364 0 0 0 .118 2.042 3.987 3.987 0 0 1-.383-2.064 11.089 11.089 0 0 1 .271-2.1 22.933 22.933 0 0 1 1.358-4.016l.3.564a6.45 6.45 0 0 1-3.313-1.371 4.378 4.378 0 0 1-1.791-3.235 7.365 7.365 0 0 1 4-5.759 14.494 14.494 0 0 1 3.24-1.3 11.083 11.083 0 0 1 3.474-.459 3.4 3.4 0 0 1 1.73.6 2.983 2.983 0 0 1 1.026 1.492 6.307 6.307 0 0 1-.018 3.403z" class="cls-14" data-name="Path 2559"/>
            </g>
        </g>
        <g id="illustrasi-hero-2" data-name="illustrasi-hero">
            <g id="Group_1841" data-name="Group 1841">
                <path id="Path_2560" d="M54.216 522.478s6.311-1.833 15.736.457c0 0 2.746 3.491 2.007 5.506S60.6 525.329 60.6 525.329z" class="cls-13" data-name="Path 2560"/>
            </g>
            <g id="Group_1842" data-name="Group 1842">
                <path id="Path_2561" d="M-31.041 602.211s16.823-12.589 32.693 3.505c18.137 18.389 26.27 5.961 31.2 8.594s19.1-47.537 19.1-47.537l11.511-42.507s-34.28 6.468-54.653 23.506-38.894 50.18-39.851 54.439z" class="cls-13" data-name="Path 2561"/>
            </g>
            <g id="Group_1843" data-name="Group 1843">
                <path id="Path_2562" d="M78.2 529.168c-2.58-2.11-8.7-4.06-18.36-5.491-4.964-.739-10 1.68-10 1.68s.441 25.272-.683 27.961c4.32 3.8 19.429 7.065 22.362 6.643a1.926 1.926 0 0 1 .226-.646 59.767 59.767 0 0 0 6.455-30.147z" class="cls-9" data-name="Path 2562"/>
            </g>
            <g id="Group_1844" data-name="Group 1844">
                <path id="Path_2563" d="M78.323 528.648c-1.753-1.433-8.709-3.4-13.729-4.57-2.37-.554 7.876 8.356 6.156 18.654-1.9 11.4-8.111 15.94-8.111 15.94s6.6 1.789 8.874 1.289a1.926 1.926 0 0 1 .226-.646 62.335 62.335 0 0 0 6.584-30.667z" class="cls-15" data-name="Path 2563"/>
            </g>
            <g id="Group_1845" data-name="Group 1845">
                <path id="Path_2564" d="M71.446 512.629s2.06-.78 2.9 2.85-.38 4.614-.38 4.614z" class="cls-8" data-name="Path 2564"/>
            </g>
            <g id="Group_1846" data-name="Group 1846">
                <path id="Path_2565" d="M65 515.9a4.985 4.985 0 0 0 .354 4.881 2.855 2.855 0 0 0 3.935 1.239z" class="cls-16" data-name="Path 2565"/>
            </g>
            <g id="Group_1847" data-name="Group 1847">
                <path id="Path_2566" d="M61.564 511.3a.18.18 0 0 0-.327.062 4.855 4.855 0 0 0 2.365 5.567c5.25 2.794 9.142-2.124 10.973.959 0 0 .548-5.591-1.955-7.56-2.125-1.669-5.406-.173-7.029 1.232-1.391 1.208-2.799 1.701-4.027-.26z" class="cls-16" data-name="Path 2566"/>
            </g>
            <g id="Group_1848" data-name="Group 1848">
                <path id="Path_2567" d="M72.62 510.331a3.733 3.733 0 0 0-2.4-.543 6.755 6.755 0 0 0-2.356.71 9.374 9.374 0 0 0-2.036 1.378 3.652 3.652 0 0 1-2.573 1.167 2.337 2.337 0 0 1-1.391-.669 3.49 3.49 0 0 1-.474-.543l-.195-.29a.26.26 0 0 0 .4.049c.138-.235.033-.012.035.06l-.045.3c-.025.2-.043.4-.049.6a5.423 5.423 0 0 0 .082 1.182 4.106 4.106 0 0 0 1.027 2.072 6.051 6.051 0 0 0 2.014 1.344l.182.088-.026.17a5.3 5.3 0 0 0-.016 1.715 6.075 6.075 0 0 0 .563 1.67 4.981 4.981 0 0 1-1.026-3.445l.154.257a6.679 6.679 0 0 1-2.336-1.31 4.524 4.524 0 0 1-1.354-2.403 5.322 5.322 0 0 1-.134-1.369 6.793 6.793 0 0 1 .049-.686l.049-.337.031-.169a.621.621 0 0 1 1.142-.258l.165.239a3.191 3.191 0 0 0 .364.427 1.449 1.449 0 0 0 .863.445 3.09 3.09 0 0 0 1.986-.9 8.569 8.569 0 0 1 2.3-1.343 6.455 6.455 0 0 1 2.592-.524 3.629 3.629 0 0 1 2.413.916z" class="cls-17" data-name="Path 2567"/>
            </g>
            <g id="Group_1851" data-name="Group 1851">
                <g id="Group_1849" data-name="Group 1849">
                    <path id="Path_2568" d="M37.547 643.63c2.059-.847.317-3.626-.059-5.746-.065.723-.283 1.517-.968.78-1-1.076-2.014-4.047-1.519-5.329a6.505 6.505 0 0 0-2.462.781c-.83.436 3.336 10.201 5.008 9.514z" class="cls-8" data-name="Path 2568"/>
                </g>
                <g id="Group_1850" data-name="Group 1850">
                    <path id="Path_2569" d="M36.52 638.664c.685.737.9-.057.968-.78-.231-1.315-.473-2.4-.486-2.656a1.5 1.5 0 0 1 .394-1.1l-.172-.637s-.6.777-1.543-.093c-.158-.147-.438-.078-.68-.067-.495 1.286.517 4.257 1.519 5.333z" class="cls-5" data-name="Path 2569"/>
                </g>
            </g>
            <g id="Group_1854" data-name="Group 1854">
                <g id="Group_1852" data-name="Group 1852">
                    <path id="Path_2570" d="M9.677 668.911c-1.577-1.3 1.522-3.729 3.294-6.177-.306.5-.675 1.462.069 1.563a3.543 3.543 0 0 0 3.1-2.325 10.042 10.042 0 0 1 1.042 2.495c.262.949-5.511 6.089-7.505 4.444z" class="cls-8" data-name="Path 2570"/>
                </g>
                <g id="Group_1853" data-name="Group 1853">
                    <path id="Path_2571" d="M12.207 665.492c-.743-.1.294-2.047.6-2.552a10.116 10.116 0 0 1 1.28-1.419 1.522 1.522 0 0 0 .294-1.006l.692-.321a1.787 1.787 0 0 0 .64 1.266 2.55 2.55 0 0 1 .422.512c-.327 1.202-2.842 3.666-3.928 3.52z" class="cls-5" data-name="Path 2571"/>
                </g>
            </g>
            <g id="Group_1855" data-name="Group 1855">
                <path id="Path_2572" d="M72.629 533.188S83.557 532 95.485 498.08c2.23-6.342-4.278-12.472-4.278-12.472s-8.291 1.505-8.84 5.18-3.227 21.522-3.227 21.522-2.507 11.289-6.851 13.628c-1.429.768-5.787-.54-5.787-.54z" class="cls-15" data-name="Path 2572"/>
            </g>
            <g id="Group_1856" data-name="Group 1856">
                <path id="Path_2573" d="M49.151 553.318c-.122.286-8.3 4.356-14.147 10.563-6.463 6.863-6.508 15.2-9.273 28.455-2.913 13.977-11.2 52.844-13.453 66.106-.305 1.788 5.261 3.991 6.024 1.883 4.79-13.225 34.915-83.762 34.915-83.762l12.631 22.628-30.229 34.187 1.912 2.1S77.375 616.992 82 602.183c3.21-10.274-10.98-37.963-10.492-42.222-2.928.422-18.037-2.844-22.357-6.643z" class="cls-6" data-name="Path 2573"/>
            </g>
            <g id="Group_1858" data-name="Group 1858">
                <path id="Path_2575" d="M27.048 535.742C22.311 539.979 8.412 563.223 15.487 567c2.633 1.4 6.114.221 6.114.221l14.731-25.453 18.359-11.108-.209-6.668s-19.128 4.321-27.434 11.75z" class="cls-9" data-name="Path 2575"/>
            </g>
            <g id="Group_1871" data-name="Group 1871">
                <g id="Group_1861" data-name="Group 1861">
                    <g id="Group_1860" data-name="Group 1860">
                        <g id="Group_1859" data-name="Group 1859">
                            <path id="Path_2576" d="M9.385 572.333l2.211-4.081a.568.568 0 0 1 .77-.229l6.861 3.717a.569.569 0 0 1 .229.772l-2.211 4.081zm3.088-2.543l-1.053 1.938 5.22 2.828 1.051-1.938z" class="cls-17" data-name="Path 2576"/>
                        </g>
                    </g>
                </g>
                <g id="Group_1864" data-name="Group 1864">
                    <g id="Group_1863" data-name="Group 1863">
                        <g id="Group_1862" data-name="Group 1862">
                            <path id="Path_2577" d="M-3.706 583.6l18.665 10.112a2.658 2.658 0 0 0 3.6-1.07l6.4-11.8a2.658 2.658 0 0 0-1.07-3.6L5.223 567.115a2.659 2.659 0 0 0-3.6 1.073l-6.395 11.8a2.657 2.657 0 0 0 1.066 3.612z" class="cls-17" data-name="Path 2577"/>
                        </g>
                    </g>
                </g>
                <g id="Group_1867" data-name="Group 1867">
                    <g id="Group_1866" data-name="Group 1866">
                        <g id="Group_1865" data-name="Group 1865">
                            <path id="Path_2578" d="M.306 576.878l18.09 9.8a2.987 2.987 0 0 0 4.046-1.2l2.517-4.645a2.658 2.658 0 0 0-1.07-3.6L5.223 567.115a2.659 2.659 0 0 0-3.6 1.073L-.9 572.831a2.985 2.985 0 0 0 1.206 4.047z" class="cls-16" data-name="Path 2578"/>
                        </g>
                    </g>
                </g>
                <g id="Group_1870" data-name="Group 1870">
                    <g id="Group_1869" data-name="Group 1869">
                        <g id="Group_1868" data-name="Group 1868">
                            <path id="Rectangle_48" d="M0 0h4.19v2.139H0z" class="cls-18" data-name="Rectangle 48" transform="rotate(-151.547 79.201 291.04)"/>
                        </g>
                    </g>
                </g>
            </g>
            <g id="Group_1875" data-name="Group 1875">
                <g id="Group_1874" data-name="Group 1874">
                    <g id="Group_1873" data-name="Group 1873">
                        <g id="Group_1872" data-name="Group 1872">
                            <path id="Path_2579" d="M15.966 566.147a14.607 14.607 0 0 0-2.2 2.693c-.468 1.153.621 2.4.742 2.013.066-.213.581-.958.858-1s.553.346.929.417-.241-.656-.07-1.054 1.791-2.311-.259-3.069z" class="cls-5" data-name="Path 2579"/>
                        </g>
                    </g>
                </g>
            </g>
            <g id="Group_1879" data-name="Group 1879">
                <g id="Group_1878" data-name="Group 1878">
                    <g id="Group_1877" data-name="Group 1877">
                        <g id="Group_1876" data-name="Group 1876">
                            <path id="Path_2580" d="M90.43 486.186a15.287 15.287 0 0 1 .691-3.523c.6-1.09 2.089-.391 2.053-.034a1.035 1.035 0 0 1-.229.459s.148-.229.442.019-.265.893-.467 1.278-.605 2.908-2.49 1.801z" class="cls-5" data-name="Path 2580"/>
                        </g>
                    </g>
                </g>
            </g>
            <g id="Group_1880" data-name="Group 1880">
                <path id="Path_2581" d="M25.875 537.081s-29.258 11.9-44.127 37.17-12.789 27.96-12.789 27.96 4.955-9.385 18.642-9.165a.438.438 0 0 0 .445-.519c-.707-3.707-3.238-26.186 32.552-51.482 1.861-1.314 5.277-3.964 5.277-3.964z" class="cls-19" data-name="Path 2581"/>
            </g>
            <g id="Group_1881" data-name="Group 1881">
                <path id="Path_2582" d="M68.765 532.07s2.813-3.913 1.061-6.172c-1.5-1.937.5-4.062 3.276.2.645.986.807 4.162-1.075 5.16-2.293 1.219-3.262.812-3.262.812z" class="cls-13" data-name="Path 2582"/>
            </g>
            <g id="Group_1884" data-name="Group 1884">
                <g id="Group_1882" data-name="Group 1882">
                    <path id="Path_2583" d="M67.981 520.566s-2.914 5.313-2.526 6.114 2.264 2.248 3.922 1.188 1.921-6.356 1.921-6.356z" class="cls-5" data-name="Path 2583"/>
                </g>
                <g id="Group_1883" data-name="Group 1883">
                    <path id="Path_2584" d="M66.042 524.493a7.167 7.167 0 0 0 4.482 1.529 16.541 16.541 0 0 0 .65-3.14l-3.838-1.1a45.466 45.466 0 0 0-1.294 2.711z" class="cls-12" data-name="Path 2584"/>
                </g>
            </g>
            <g id="Group_1885" data-name="Group 1885">
                <path id="Path_2585" d="M75.256 520.147a8.8 8.8 0 0 0-1.861-4.726c-1.175-1.224-6.184 1.148-6.809 1.991-.687.921-.237 2.229.078 3.209a7.4 7.4 0 0 0 2.1 3.219 4.727 4.727 0 0 0 3.464.319c2.63-.998 3.139-1.953 3.028-4.012z" class="cls-5" data-name="Path 2585"/>
            </g>
            <g id="Group_1886" data-name="Group 1886">
                <path id="Path_2586" d="M68.959 532.119s-.252.05-.836-.422c-3.1-2.493-14.481-10.057-32.151-1.462a36.386 36.386 0 0 1 22.973-8.144s8.648 1.016 9.873 9.142a3.859 3.859 0 0 1 .141.886z" class="cls-13" data-name="Path 2586"/>
            </g>
            <g id="Group_1888" data-name="Group 1888">
                <path id="Path_2588" d="M53.217 576.563l12.631 22.628-30.229 34.187 1.912 2.1S77.375 616.992 82 602.183c3.21-10.274-10.98-37.963-10.492-42.222-1.278.184-8.874-1.289-8.874-1.289a36.4 36.4 0 0 1-4.261 9.968c-2.513 4.135-5.156 7.923-5.156 7.923z" class="cls-7" data-name="Path 2588"/>
            </g>
        </g>
        <g id="illustrasi-hero-3" data-name="illustrasi-hero">
            <g id="Group_1890" data-name="Group 1890">
                <path id="Path_2589" d="M1239.271 198.347s32.565-8.5 54.834 21.594c21.328 28.817 35.875 52.016 71.578 49.4a.393.393 0 0 1 .183.757 41.479 41.479 0 0 0-21.592 18.572c-8.752 16.022-13.514 24.252-33.188 27.265s-23.435 2.92-26.119 16.644c0 0-28.424-4.394-36.375-55.311s-9.321-78.921-9.321-78.921z" class="cls-13" data-name="Path 2589"/>
            </g>
            <g id="Group_1891" data-name="Group 1891">
                <path id="Path_2590" d="M1247 202.366c-8.884-1.432-20.946 2.214-26.142 4.241l-.021.009c-.627.245-.376 9.173-.376 9.173 1.149 11.379 8.668 24.852 13.644 31.96a3.21 3.21 0 0 1 .583 1.027c3.734.524 22.65-3.89 28.13-8.745-.908-2.144-4.244-16.05-6.591-26.277-2.057-8.936-6.904-11.012-9.227-11.388z" class="cls-11" data-name="Path 2590"/>
            </g>
            <g id="Group_1892" data-name="Group 1892">
                <path id="Path_2591" d="M1247 202.366c-4.334-.7-12.242-.011-16.927.931-4.911.986 13.487 44.529 20.041 42.535 5.213-1.591 10.277-3.651 12.7-5.8-.908-2.144-4.244-16.05-6.591-26.277-2.053-8.937-6.9-11.013-9.223-11.389z" class="cls-10" data-name="Path 2591"/>
            </g>
            <g id="Group_1893" data-name="Group 1893">
                <path id="Path_2592" d="M1259.65 209.445c-3.2-4.224-8.767-7.5-13.452-7.156-8.759.633 11.562 13.481 12.778 23.957-4.361-2.765-14.887-8.046-18.182-9.777a1.508 1.508 0 0 0-1.717.258c-8.425 7.668 2.725 12.82 12.756 16.94 2.677 1.1 13.738 5.089 16.4 1.79 1.659-2.057 4.682-8.519-8.583-26.012z" class="cls-15" data-name="Path 2592"/>
            </g>
            <g id="Group_1895" data-name="Group 1895">
                <g id="Group_1894" data-name="Group 1894">
                    <path id="Path_2593" d="M1186.9 170.6c2.818 9.88 9.915 18.013 14.413 22.754 17.917 18.883 22.269 32.173 22.269 32.173l5.588-11.073s-1.439-2.6-2.884-4.835c-3.152-4.842-16.552-22.551-16.552-22.551s-7.261-19.627-8.848-24.643c-.875-2.776-3.94-5.185-6.51-6.782a4.239 4.239 0 0 0-6.1 1.85 19.04 19.04 0 0 0-1.376 13.107z" class="cls-11" data-name="Path 2593"/>
                </g>
            </g>
            <g id="Group_1898" data-name="Group 1898">
                <g id="Group_1896" data-name="Group 1896">
                    <path id="Path_2594" d="M1320.575 367.27c-2.392.01-1.2-4.473-1.208-7.21.243.892.693 1.837 1.389.761 1.015-1.572 1.618-5.518.714-7.013a8.271 8.271 0 0 1 3.258.426c1.134.366-1.854 13.024-4.153 13.036z" class="cls-8" data-name="Path 2594"/>
                </g>
                <g id="Group_1897" data-name="Group 1897">
                    <path id="Path_2595" d="M1320.756 360.821c-.7 1.076-1.146.131-1.389-.761 0-1.7.061-3.107.019-3.436a1.9 1.9 0 0 0-.739-1.282l.073-.839s2.443-.658 2.75-.695c.904 1.492.301 5.441-.714 7.013z" class="cls-5" data-name="Path 2595"/>
                </g>
            </g>
            <g id="Group_1901" data-name="Group 1901">
                <g id="Group_1899" data-name="Group 1899">
                    <path id="Path_2596" d="M1350.777 362.7c.416-1.34-4.636-5.346-6.527-6.056.576.48 1.417 1.478.566 1.907-1.246.628-3.8-.2-4.688-1.505a12.6 12.6 0 0 0-.213 3.431c.072 1.251 9.891 5.367 10.862 2.223z" class="cls-8" data-name="Path 2596"/>
                </g>
                <g id="Group_1900" data-name="Group 1900">
                    <path id="Path_2597" d="M1346.315 359.643c.853-.427-1.206-2.336-1.782-2.819a12.778 12.778 0 0 0-2.131-1.173 1.944 1.944 0 0 1-.774-1.086l-.964-.1a2.257 2.257 0 0 1-.241 1.785 3.2 3.2 0 0 0-.295.794c.892 1.311 4.943 3.227 6.187 2.599z" class="cls-5" data-name="Path 2597"/>
                </g>
            </g>
            <g id="Group_1902" data-name="Group 1902">
                <path id="Path_2598" d="M1261.744 235.525a66.633 66.633 0 0 1 17.083 11.748c8.639 8.322 63.82 107.417 63.82 107.417l-2.736.115-76.018-78.02 3.625 35.8 51.189 40.881a2.44 2.44 0 0 1 .874 2.365 1.324 1.324 0 0 1-1.81.983c-9.619-3.964-62.155-25.862-65.386-32.361-28.238-56.8-15.8-70.419-17.36-75.644 3.775-.125 22.153-7.562 26.719-13.284z" class="cls-8" data-name="Path 2598"/>
            </g>
            <g id="Group_1904" data-name="Group 1904">
                <path id="Path_2600" d="M1192.387 156.244a21.61 21.61 0 0 0-.929-5.386c-.662-1.444-1.825-2.452-4.522-.545-1.466 1.034-.637 4.146 1.028 3.135.649-.398 1.285 4.997 4.423 2.796z" class="cls-5" data-name="Path 2600"/>
            </g>
            <g id="Group_1905" data-name="Group 1905">
                <path id="Path_2601" d="M1230.825 205.266c-1.327 2.584 1.239 5.86 4.866 7.49.057.025-.049.174-.005.219 0 0-7.3 1.216-11.6-6.67 0 0-1.553-1.571 6.523-5.8l1.4 3.557s-.352-.41-1.184 1.204z" class="cls-6" data-name="Path 2601"/>
            </g>
            <g id="Group_1906" data-name="Group 1906">
                <path id="Path_2602" d="M1235.092 212.734c-.431.114-.109.512.941.118 5.26-1.98 3.692-5.652 8.509-9.738 10.266-8.7 32.186.961 30.111-.036-25.478-12.229-43.465-3.781-43.465-3.781l.681 3.812a4.233 4.233 0 0 1 5.126 2.408c1.014 2.194-1.903 7.217-1.903 7.217z" class="cls-6" data-name="Path 2602"/>
            </g>
            <g id="Group_1909" data-name="Group 1909">
                <g id="Group_1907" data-name="Group 1907">
                    <path id="Path_2603" d="M1231.979 198.846s3.1 6.907 2.986 7.828-1.142 2.415-2.516.882-2.61-8.033-2.61-8.033z" class="cls-5" data-name="Path 2603"/>
                </g>
                <g id="Group_1908" data-name="Group 1908">
                    <path id="Path_2604" d="M1234.118 203.918a2.6 2.6 0 0 1-2.84 1.221c-.443-1.3-.821-2.8-1.079-3.928l2.476-.781c.431 1 .987 2.31 1.443 3.488z" class="cls-12" data-name="Path 2604"/>
                </g>
            </g>
            <g id="Group_1910" data-name="Group 1910">
                <path id="Path_2605" d="M1226.762 198.465s3.6.994 5.937.449 5.826-1.773 6.364-5.119c.663-4.14-3.2-6.59-4.072-8.133-1.1-1.949-.048-2.844-.908-3.609-2.256-2-7.663 3.268-9.233 6.167s-2.198 8.063 1.912 10.245z" class="cls-13" data-name="Path 2605"/>
            </g>
            <g id="Group_1911" data-name="Group 1911">
                <path id="Path_2606" d="M1224.678 198.139c-.382-1.225.787-5.774.787-5.774 1.561-3.073 8.456-.546 9.432.361 1.071 1 .807 2.735.641 4.034a9.457 9.457 0 0 1-1.89 4.511 6.019 6.019 0 0 1-4.265 1.192c-3.519-.645-4.376-1.723-4.705-4.324z" class="cls-5" data-name="Path 2606"/>
            </g>
            <g id="Group_1912" data-name="Group 1912">
                <path id="Path_2607" d="M1234.991 185.662a4.169 4.169 0 0 1-.8-2.576.827.827 0 0 0-.473-.85 2.824 2.824 0 0 1-.23-.127c-.085-.024-.173-.032-.261-.05a1.417 1.417 0 0 0-.541-.014 5.528 5.528 0 0 0-2.213.982 14.463 14.463 0 0 0-2 1.614 19.015 19.015 0 0 0-3.335 3.933 11.449 11.449 0 0 0-1.471 4.969 8.992 8.992 0 0 1 .725-5.355 15.383 15.383 0 0 1 3.349-4.338 14.4 14.4 0 0 1 2.189-1.681 5.8 5.8 0 0 1 2.7-.958 2.387 2.387 0 0 1 .78.092c.13.044.26.078.383.129l.331.233a1.336 1.336 0 0 1 .52.651 1.8 1.8 0 0 1 .074.781 5.5 5.5 0 0 0-.066 1.3 5.063 5.063 0 0 0 .339 1.265z" class="cls-14" data-name="Path 2607"/>
            </g>
            <g id="Group_1914" data-name="Group 1914">
                <g id="Group_1913" data-name="Group 1913">
                    <path id="Path_2608" d="M1232.427 217.62c-.139-.085-.631-.368-1.121-.722-.586-.416 2.95-1.117 4.306-.285 1.339.833 3.269 5.143 3.269 5.143-2.392 3-4.656-1.757-5.228-2.266s-3.068-1.2-2.744-1.788c.285-.517 1.286-.165 1.518-.082z" class="cls-5" data-name="Path 2608"/>
                </g>
            </g>
            <g id="Group_1915" data-name="Group 1915">
                <path id="Path_2609" d="M1261.744 235.525a66.633 66.633 0 0 1 17.083 11.748c8.639 8.322 63.82 107.417 63.82 107.417l-1.52.064s-35.806-51.774-48.915-68.139c-25.7-32.089-45-41.956-45-41.956s12.133-6.125 14.532-9.134z" class="cls-4" data-name="Path 2609"/>
            </g>
        </g>
        <g id="illustrasi-hero-4" data-name="illustrasi-hero">
            <g id="Group_1917" data-name="Group 1917">
                <path id="Path_2610" d="M1193.791 541.2s-1.057-10.053 3.8-10.037c0 0 .127-5.712 7.552-4.3s9.405 5.859 9.405 5.859 9.329-4.6 13.569 0 3.251 8.478 3.251 8.478 6.081.573 5.653 5.027-5.936 5.936-5.936 5.936z" class="cls-13" data-name="Path 2610"/>
            </g>
            <g id="Group_1918" data-name="Group 1918">
                <path id="Path_2611" d="M1206.968 538.361a34.883 34.883 0 0 1 33.6 18.074c11.5 20.154 19.082 36.178 42.231 37.225a.254.254 0 0 1 .06.5 26.839 26.839 0 0 0-15.3 10.288c-6.851 9.627-10.543 14.553-23.418 14.987s-15.287.085-18.063 8.7c0 0-17.932-4.994-19.152-38.331s.042-51.443.042-51.443z" class="cls-8" data-name="Path 2611"/>
            </g>
            <g id="Group_1919" data-name="Group 1919">
                <path id="Path_2612" d="M1210.626 541.967c-.024.033-.081-.011-.123-.015-5.781-.712-12.258-.452-15.752.454h-.014c-.422.111-.943 5.867-.943 5.867-.13 7.4 3.674 16.637 6.325 21.588a2.039 2.039 0 0 1 .3.7c2.359.622 14.855-.77 18.749-3.469-.418-1.45-1.5-10.641-2.226-17.394-.642-5.898-3.108-12.109-6.316-7.731z" class="cls-10" data-name="Path 2612"/>
            </g>
            <g id="Group_1920" data-name="Group 1920">
                <path id="Path_2613" d="M1210.626 541.967c-.024.033-.081-.011-.123-.015-1.82-.224-5.554-.393-5.554-.393a62.778 62.778 0 0 1 6.413 15.3c1.46 5.882-.458 12.929-.458 12.929s6.595-1.538 8.262-2.694c-.418-1.45-1.5-10.641-2.226-17.394-.64-5.9-3.106-12.111-6.314-7.733z" class="cls-15" data-name="Path 2613"/>
            </g>
            <g id="Group_1921" data-name="Group 1921">
                <path id="Path_2614" d="M1218.57 563.978c.115.232 4.305 4.148 9.406 8.975 5.64 5.337 32.975 73.714 32.975 73.714l-.789.3-43.363-56.3-.408 23.289 31.1 32.093-1.495.031s-38.5-20.783-40.238-25.653c-13.811-38.67-4.774-46.47-5.375-49.948 2.43.202 14.817-3.17 18.187-6.501z" class="cls-5" data-name="Path 2614"/>
            </g>
            <g id="Group_1924" data-name="Group 1924">
                <g id="Group_1923" data-name="Group 1923">
                    <path id="Path_2616" d="M1218.631 563.921c-3.372 3.329-15.818 6.76-18.249 6.554.512 2.948-6.421 10.333 1.242 36.96a54.962 54.962 0 0 0 14.906-1.468 66.346 66.346 0 0 0 9.007-2.709 65.035 65.035 0 0 0 15.089-8.131l1.684-1.07s-10.159-23.857-23.679-30.136z" class="cls-6" data-name="Path 2616"/>
                </g>
            </g>
            <g id="Group_1925" data-name="Group 1925">
                <path id="Path_2617" d="M1193.791 541.2a21.234 21.234 0 0 1 .07-5.956 7.584 7.584 0 0 1 1.052-2.843 3.471 3.471 0 0 1 1.137-1.087 3.208 3.208 0 0 1 1.539-.409l-.257.251a5.152 5.152 0 0 1 .891-2.66 4.643 4.643 0 0 1 2.219-1.726 6.943 6.943 0 0 1 2.748-.427l.692.02.679.093.679.1.666.143a16.086 16.086 0 0 1 5.062 2 11.969 11.969 0 0 1 2.164 1.69 8.487 8.487 0 0 1 1.679 2.215l-.392-.14a22.388 22.388 0 0 1 3.433-1.246 19.387 19.387 0 0 1 3.58-.662 10.378 10.378 0 0 1 3.627.293 6.106 6.106 0 0 1 3.056 1.873 6.26 6.26 0 0 0-3.108-1.669 10.834 10.834 0 0 0-3.539-.127 22.33 22.33 0 0 0-6.792 2.055l-.259.121-.134-.263a8.106 8.106 0 0 0-1.574-2.017 11.451 11.451 0 0 0-2.071-1.583 16.667 16.667 0 0 0-4.877-1.9l-.643-.148-.646-.1-.648-.1-.648-.025a6.325 6.325 0 0 0-2.517.359 4.405 4.405 0 0 0-2.812 3.831l-.022.262-.237-.008a2.725 2.725 0 0 0-2.328 1.225 7.269 7.269 0 0 0-1.078 2.664 17.763 17.763 0 0 0-.386 2.923 27.731 27.731 0 0 0-.005 2.978z" class="cls-20" data-name="Path 2617"/>
            </g>
            <g id="Group_1927" data-name="Group 1927">
                <g id="Group_1926" data-name="Group 1926">
                    <path id="Path_2618" d="M1175.427 516.524c1.056 6.565 5 12.337 7.525 15.729 10.071 13.509 11.854 22.383 11.854 22.383l4.437-6.692s-.724-1.782-1.483-3.327c-1.656-3.352-8.915-15.761-8.915-15.761s-3.166-13.171-3.8-16.516c-.349-1.852-2.135-3.636-3.664-4.859a2.749 2.749 0 0 0-4.066.723 12.333 12.333 0 0 0-1.888 8.32z" class="cls-10" data-name="Path 2618"/>
                </g>
            </g>
            <g id="Group_1930" data-name="Group 1930">
                <g id="Group_1928" data-name="Group 1928">
                    <path id="Path_2619" d="M1246.6 654.092c-.589-.7-.431-2.966-.225-4.726.09.592.306 1.236.835.6.772-.935 1.462-3.424 1-4.456a5.4 5.4 0 0 1 2.061.526c.703.316-2.707 9.196-3.671 8.056z" class="cls-8" data-name="Path 2619"/>
                </g>
                <g id="Group_1929" data-name="Group 1929">
                    <path id="Path_2620" d="M1247.215 649.963c-.529.639-.745-.005-.835-.6.129-1.093.277-1.993.275-2.206a1.243 1.243 0 0 0-.377-.883l.113-.533s1.618-.234 1.82-.237c.466 1.035-.224 3.524-.996 4.459z" class="cls-5" data-name="Path 2620"/>
                </g>
            </g>
            <g id="Group_1933" data-name="Group 1933">
                <g id="Group_1931" data-name="Group 1931">
                    <path id="Path_2621" d="M1266.077 652.529c.368-.828-2.573-3.79-3.734-4.391.335.352.8 1.059.218 1.268a2.909 2.909 0 0 1-2.9-1.325 8.149 8.149 0 0 0-.4 2.19c-.046.81 5.949 4.205 6.816 2.258z" class="cls-8" data-name="Path 2621"/>
                </g>
                <g id="Group_1932" data-name="Group 1932">
                    <path id="Path_2622" d="M1263.44 650.225c.582-.212-.593-1.6-.929-1.95a8.169 8.169 0 0 0-1.28-.917 1.253 1.253 0 0 1-.413-.757l-.612-.136a1.459 1.459 0 0 1-.293 1.129 2.022 2.022 0 0 0-.249.487c.473.91 2.928 2.451 3.776 2.144z" class="cls-5" data-name="Path 2622"/>
                </g>
            </g>
            <g id="Group_1935" data-name="Group 1935">
                <path id="Path_2624" d="M1178.711 508.288s-1.7-2.539-1.689-3.566 1.612-2.72 1.639-2.261a8.444 8.444 0 0 1 0 .894s.137-.856.57-.833-.044 1.637.036 2.123 1.91 3.365-.556 3.643z" class="cls-5" data-name="Path 2624"/>
            </g>
            <g id="Group_1936" data-name="Group 1936">
                <path id="Path_2625" d="M1193.178 504.2s.22-3.048-.3-3.936-2.747-1.565-2.542-1.153a8.8 8.8 0 0 0 .438.778s-.542-.676-.908-.44.848 1.4 1.019 1.861.015 3.873 2.293 2.89z" class="cls-5" data-name="Path 2625"/>
            </g>
            <g id="Group_1937" data-name="Group 1937">
                <path id="Path_2626" d="M1201.012 542.166c-.594 1.328.813 3.031 2.554 5.185.027.031-.045.108-.02.139 0 0-4.785.226-6.945-5.173 0 0-.881-1.128 4.634-3.227l.628 2.391s-.374-.391-.851.685z" class="cls-8" data-name="Path 2626"/>
            </g>
            <g id="Group_1938" data-name="Group 1938">
                <path id="Path_2627" d="M1203.53 547.492a1.1 1.1 0 0 0 .248-.054 6.569 6.569 0 0 0 4.537-5.609s.186-2.657-1.022-3.529c-1.086-.786-5.335.53-5.335.53l1.042 2.844s.822-.355 1.165 1.172-.635 4.646-.635 4.646z" class="cls-8" data-name="Path 2627"/>
            </g>
            <g id="Group_1941" data-name="Group 1941">
                <g id="Group_1939" data-name="Group 1939">
                    <path id="Path_2628" d="M1202.243 538.126s1.465 4.676 1.322 5.258-.919 1.468-1.686.377-1.062-5.364-1.062-5.364z" class="cls-5" data-name="Path 2628"/>
                </g>
                <g id="Group_1940" data-name="Group 1940">
                    <path id="Path_2629" d="M1203.231 541.55a1.682 1.682 0 0 1-1.918.567 25.914 25.914 0 0 1-.394-2.606l1.651-.315c.201.675.456 1.563.661 2.354z" class="cls-12" data-name="Path 2629"/>
                </g>
            </g>
            <g id="Group_1942" data-name="Group 1942">
                <path id="Path_2630" d="M1197.6 537.112c-.15-.815.948-3.648.948-3.648 1.24-1.859 5.477.292 6.035.951.612.721.31 1.82.1 2.641a6.1 6.1 0 0 1-1.561 2.755 3.893 3.893 0 0 1-2.831.442c-2.206-.686-2.674-1.443-2.691-3.141z" class="cls-5" data-name="Path 2630"/>
            </g>
            <g id="Group_1946" data-name="Group 1946">
                <g id="Group_1943" data-name="Group 1943">
                    <path id="Path_2631" d="M1202.03 506.614c4.221 5.141 5.358 12.078 6.8 16.052 6.974 19.124 7.726 26.106 7.726 26.106l-6.752-3.506s-.857-1.722-1.511-3.314c-1.418-3.461-5.91-17.118-5.91-17.118s-7.775-11.092-9.86-13.785c-1.156-1.485-1.31-4.007-1.214-5.963a2.748 2.748 0 0 1 3.232-2.568 12.34 12.34 0 0 1 7.489 4.096z" class="cls-15" data-name="Path 2631"/>
                </g>
                <g id="Group_1945" data-name="Group 1945">
                    <g id="Group_1944" data-name="Group 1944">
                        <path id="Path_2632" d="M1216.824 549.156l-7.18-3.726-.034-.064c-.008-.017-.867-1.75-1.515-3.331-1.373-3.35-5.666-16.368-5.906-17.1-.427-.61-7.827-11.156-9.835-13.749-1.214-1.562-1.355-4.185-1.261-6.109a2.945 2.945 0 0 1 1.1-2.164 2.98 2.98 0 0 1 2.39-.611 12.6 12.6 0 0 1 7.616 4.174c3.213 3.912 4.641 8.806 5.786 12.736.362 1.241.7 2.412 1.055 3.38 6.9 18.931 7.731 26.087 7.738 26.157zm-6.85-4.053l6.308 3.277c-.276-1.765-1.694-9.294-7.654-25.639-.357-.981-.7-2.158-1.064-3.405-1.136-3.893-2.548-8.739-5.7-12.58a12.164 12.164 0 0 0-7.351-4.022 2.539 2.539 0 0 0-2.037.522 2.5 2.5 0 0 0-.938 1.841c-.092 1.851.037 4.363 1.168 5.818 2.065 2.667 9.789 13.682 9.866 13.793l.03.058c.045.136 4.506 13.687 5.9 17.1a55.597 55.597 0 0 0 1.472 3.234z" class="cls-15" data-name="Path 2632"/>
                    </g>
                </g>
            </g>
            <g id="Group_1947" data-name="Group 1947">
                <path id="Path_2633" d="M1205.476 536.409s-1.318 1.247-3.1-2.257a2.578 2.578 0 0 0-2.473-1.42s1.8-2.857 3.806-.858a6.11 6.11 0 0 1 1.767 4.535z" class="cls-13" data-name="Path 2633"/>
            </g>
            <g id="Group_1950" data-name="Group 1950">
                <g id="Group_1949" data-name="Group 1949">
                    <path id="Path_2635" d="M1218.631 563.921c-1.375 1.357-7.357 3.869-7.357 3.869s7.887 7.311 11.049 16.291c3.17 9.009.477 20.148.477 20.148s1.811-.619 2.737-.971a65.035 65.035 0 0 0 15.089-8.131l1.684-1.07s-10.159-23.857-23.679-30.136z" class="cls-7" data-name="Path 2635"/>
                </g>
            </g>
        </g>
        <g id="illustrasi-beki">
            <g id="Group_1959" data-name="Group 1959">
                <g id="Group_1957" data-name="Group 1957">
                    <path id="Path_2637" d="M431.814 677.405c.446 1.185 3.306 8.456 1.475 9.432s-2.122-1.252-4.264-.791a4.593 4.593 0 0 0-1.857 1.2 1.79 1.79 0 0 1-2.911.025c-.813-1.085-1.112-1.548-2.622-1.162s-2.171.03-2.281-.71 6.027-6.943 8.818-8.586c1.458-.852 3.193-.597 3.642.592z" class="cls-21" data-name="Path 2637"/>
                    <path id="Path_2638" d="M428.147 683.043a4.434 4.434 0 0 1-4.628-2.385 24.356 24.356 0 0 1-2.037-14.8 4.391 4.391 0 0 1 5.187-3.628 4.705 4.705 0 0 1 3.523 5.479 15.115 15.115 0 0 0 1.081 8.539 4.724 4.724 0 0 1-1.727 6.291 4.26 4.26 0 0 1-1.399.504z" class="cls-21" data-name="Path 2638"/>
                </g>
                <g id="Group_1958" data-name="Group 1958">
                    <path id="Path_2639" d="M454.212 674.551c-.134 1.258-1.077 9.014.939 9.5s1.74-1.744 3.93-1.835a4.584 4.584 0 0 1 2.1.7 1.792 1.792 0 0 0 2.824-.707c.514-1.255.687-1.778 2.245-1.782s2.11-.517 2.031-1.26-7.576-5.209-10.69-6.1c-1.627-.467-3.242.22-3.379 1.484z" class="cls-21" data-name="Path 2639"/>
                    <path id="Path_2640" d="M459.177 679.086a4.43 4.43 0 0 0 3.882-3.469 24.366 24.366 0 0 0-1.74-14.833 4.387 4.387 0 0 0-5.93-2.209 4.7 4.7 0 0 0-2.037 6.187 15.084 15.084 0 0 1 1.094 8.536 4.723 4.723 0 0 0 3.252 5.656 4.18 4.18 0 0 0 1.479.132z" class="cls-21" data-name="Path 2640"/>
                </g>
                <path id="Path_2641" d="M481.484 626.507a128.764 128.764 0 0 0-2.251-9.473c-.311-2.005-2.97-9.022-3.847-11.3 0 0-.159-.476-.273-.709l-.007-.014c-6.179-12.646-15.416-23.57-28.771-27.318a27.145 27.145 0 0 0-8.092-.824c.137-2.524-.392-5.174-1.1-3.6-1.116 2.485-5.814 4.1-5.814 4.1 1.825-4.024-1.559-7.97-1.559-7.97-2.236 7.068-11.289 10.221-11.289 10.221l.007.005c-.819.3-1.629.615-2.423.974-.632.246-1.258.5-1.875.783-12.152 5.519-17.313 20.349-19.557 33.127a101.437 101.437 0 0 0-1.037 23.2c-.2 3.733-.559 15.951 2.485 24.795a16.1 16.1 0 0 0 1.981 4.355 11.14 11.14 0 0 0 4.767 4.571c.206.093.406.181.6.263 3.368 1.774 8.109 2.741 14.773 2.111 7.594-.718 15.974-1.684 24.01-2.689l.28-.036c7.669-.96 21.012-2.953 21.012-2.953 1.082-.169 2.153-.337 3.2-.506 6.611-1.061 10.957-3.186 13.772-5.747q.256-.194.518-.407a11.134 11.134 0 0 0 3.468-5.621 16.094 16.094 0 0 0 .826-4.714c.738-9.331-2.676-21.061-3.804-24.624z" class="cls-22" data-name="Path 2641"/>
                <path id="Path_2642" d="M466.088 655.475a36.583 36.583 0 0 0-6.757-12.674c-7.2-8.133-18.067-9.328-27.71-6.316a21.4 21.4 0 0 0-9.836 6.991c-2.561 3.089-3.819 6.926-4.818 10.808-1.629 6.327-1.18 13.2-1.011 19.727a50.05 50.05 0 0 0 1.541-.117c7.593-.718 15.973-1.684 24.008-2.69l.281-.037c7.669-.96 21.013-2.953 21.013-2.953q1.623-.25 3.206-.505c1.031-.167 2-.361 2.928-.577a78.956 78.956 0 0 0-2.845-11.657z" class="cls-23" data-name="Path 2642"/>
                <path id="Path_2643" d="M416.166 589.462a8.626 8.626 0 0 1 3.915-1.2c1.79-.236 1.418-3.149-.372-2.913a11.611 11.611 0 0 0-5.266 1.776c-1.501 1.034.227 3.367 1.723 2.337z" class="cls-24" data-name="Path 2643"/>
                <path id="Path_2644" d="M445.014 585.654a11.58 11.58 0 0 1 4.143.406c1.763.452 2.122-2.457.38-2.9a13.737 13.737 0 0 0-4.894-.415c-1.796.19-1.421 3.102.371 2.909z" class="cls-24" data-name="Path 2644"/>
                <path id="Path_2645" d="M429.511 601.039a10.648 10.648 0 1 1-11.961-9.724 10.907 10.907 0 0 1 11.961 9.724z" class="cls-11" data-name="Path 2645"/>
                <path id="Path_2646" d="M426.823 601.383a7.612 7.612 0 1 1-8.551-6.953 7.8 7.8 0 0 1 8.551 6.953z" class="cls-25" data-name="Path 2646"/>
                <path id="Path_2647" d="M459.084 597.27a10.647 10.647 0 1 1-11.961-9.724 10.908 10.908 0 0 1 11.961 9.724z" class="cls-11" data-name="Path 2647"/>
                <path id="Path_2648" d="M456.246 597.631a7.611 7.611 0 1 1-8.551-6.949 7.795 7.795 0 0 1 8.551 6.949z" class="cls-25" data-name="Path 2648"/>
                <path id="Path_2649" d="M448.326 621.9a10.121 10.121 0 0 0-3.889-10.013 7.065 7.065 0 0 0-2.243-1.264 5.309 5.309 0 0 0-.507-1.208 7 7 0 0 0-4.381-3.129 6.648 6.648 0 0 0-8.175 5.784 4.853 4.853 0 0 0-.022.907 12.035 12.035 0 0 0-3.685 8.941 10.723 10.723 0 0 0 7.1 9.347c3.744 1.508 7.682.459 10.828-1.8a12.413 12.413 0 0 0 4.974-7.565z" class="cls-26" data-name="Path 2649"/>
                <path id="Path_2650" d="M433.553 609.4a.929.929 0 0 0-1.233.483 11.47 11.47 0 0 0-.81 1.745 1.024 1.024 0 0 0 .474 1.3.914.914 0 0 0 1.233-.482 11.536 11.536 0 0 1 .811-1.746 1.01 1.01 0 0 0-.475-1.3z" class="cls-25" data-name="Path 2650"/>
                <path id="Path_2651" d="M439.439 610.309a7.918 7.918 0 0 0-.9-1.26.925.925 0 0 0-1.307-.215 1 1 0 0 0-.191 1.365 7.907 7.907 0 0 1 .9 1.261.914.914 0 0 0 1.307.215 1.028 1.028 0 0 0 .191-1.366z" class="cls-25" data-name="Path 2651"/>
                <path id="Path_2652" d="M394.114 651.428s-6.011-4.564-5.192-13.916 10.384-7.658 14.825-7.521 7.559.949 8.692-1.208 2.6-2.442 3.105-.093-.211 2.288-.495 2.827c0 0 1.425-1.84 1.683.188s-.389 2.462-.389 2.462 1.983-1.007 1.432 1.376-7.852 19.247-23.661 15.885z" class="cls-27" data-name="Path 2652"/>
                <path id="Path_2653" d="M483.724 640.005s4.673-5.924 1.535-14.773-11.973-4.807-16.238-3.56-7.08 2.812-8.718 1.01-3.134-1.711-3.029.687.779 2.163 1.188 2.614c0 0-1.84-1.423-1.581.6s.994 2.286.994 2.286-2.172-.477-1.041 1.69 12.428 16.668 26.89 9.446z" class="cls-27" data-name="Path 2653"/>
                <path id="Path_2654" d="M438.617 615.288a6.14 6.14 0 1 0 4.086 7.661 6.2 6.2 0 0 0-4.086-7.661z" class="cls-24" data-name="Path 2654"/>
                <path id="Path_2655" d="M438.24 613.627a3.827 3.827 0 0 1-4.527.953c-1.154-.535-2.236 1.149-1.069 1.689a6.307 6.307 0 0 0 3.97.516 5.1 5.1 0 0 0 3.315-2.088c.801-1.012-.899-2.069-1.689-1.07z" class="cls-26" data-name="Path 2655"/>
            </g>
            <g id="Path_2656" class="cls-28" data-name="Path 2656">
                <path d="M485.259 625.232c-1.154-3.254-3.078-4.76-5.261-5.308-.244-.967-.5-1.931-.765-2.89-.311-2.005-2.97-9.022-3.847-11.3 0 0-.159-.476-.273-.709l-.007-.014c-6.179-12.646-15.416-23.57-28.771-27.318a27.145 27.145 0 0 0-8.092-.824c.137-2.524-.392-5.174-1.1-3.6-1.116 2.485-5.814 4.1-5.814 4.1 1.825-4.024-1.559-7.97-1.559-7.97-2.236 7.068-11.289 10.221-11.289 10.221l.007.005c-.819.3-1.629.615-2.423.974-.632.246-1.258.5-1.875.783-12.152 5.519-17.313 20.349-19.557 33.127a91.124 91.124 0 0 0-1.249 16.2c-2.321.988-4.129 2.965-4.464 6.8a16.176 16.176 0 0 0 4.933 13.7 50.13 50.13 0 0 0 2.228 11.292 16.1 16.1 0 0 0 1.981 4.355 11.14 11.14 0 0 0 4.767 4.571c.206.093.406.181.6.263 2.975 1.567 7.023 2.5 12.519 2.265v.054a50.05 50.05 0 0 0 1.541-.117c1.265-.121 2.558-.248 3.861-.381a23.484 23.484 0 0 0 2.153 7.129c-2.233 2.125-4.219 4.339-4.157 4.762.11.74.773 1.1 2.281.71s1.809.077 2.622 1.162a1.79 1.79 0 0 0 2.911-.025 4.593 4.593 0 0 1 1.857-1.2c2.142-.461 2.433 1.768 4.264.791s-1.029-8.247-1.475-9.432a1.484 1.484 0 0 0-.229-.4 4.7 4.7 0 0 0-.312-.748 14.687 14.687 0 0 1-1.089-3.693c3.772-.43 7.584-.888 11.321-1.356l.281-.037 1.185-.15a800.748 800.748 0 0 0 11.6-1.59 14.568 14.568 0 0 1-.128 3.869 4.847 4.847 0 0 0-.115.805 1.511 1.511 0 0 0-.119.448c-.134 1.258-1.077 9.014.939 9.5s1.74-1.744 3.93-1.835a4.584 4.584 0 0 1 2.1.7 1.792 1.792 0 0 0 2.824-.707c.514-1.255.687-1.778 2.245-1.782s2.11-.517 2.031-1.26c-.045-.425-2.524-2.071-5.219-3.567a23.516 23.516 0 0 0 .294-7.454l.154-.022c1.082-.169 2.153-.337 3.2-.506 6.611-1.061 10.957-3.186 13.772-5.747q.256-.194.518-.407a11.134 11.134 0 0 0 3.468-5.621 16.094 16.094 0 0 0 .826-4.714 51.572 51.572 0 0 0-.816-12.332 16.457 16.457 0 0 0 .792-13.57z" class="cls-32"/>
                <path d="M429.772 569.397c-2.236 7.068-11.289 10.221-11.289 10.221l.007.005c-.819.296-1.629.615-2.423.974a36.18 36.18 0 0 0-1.875.783c-12.152 5.519-17.313 20.349-19.557 33.127-.936 5.33-1.275 10.757-1.249 16.205-2.321.988-4.129 2.965-4.464 6.8-.716 8.179 3.791 12.695 4.933 13.699.361 3.805 1.03 7.81 2.228 11.292.417 1.433 1.045 2.931 1.981 4.355 1.239 2.054 2.801 3.668 4.767 4.571.206.093.406.181.604.263 2.668 1.405 6.198 2.301 10.862 2.301.537 0 1.09-.012 1.657-.036l.002.054a49.563 49.563 0 0 0 1.541-.117c1.265-.121 2.558-.248 3.861-.381.565 3.943 1.906 6.657 2.153 7.129-2.233 2.125-4.219 4.339-4.157 4.762.08.534.446.868 1.21.868.295 0 .65-.05 1.071-.158.354-.09.642-.134.885-.134.794 0 1.115.466 1.737 1.296.383.512.865.738 1.355.738.55 0 1.11-.282 1.556-.763.847-.909 1.857-1.205 1.857-1.205a2.69 2.69 0 0 1 .567-.064c1.312 0 1.83 1.105 2.825 1.105.253 0 .536-.07.872-.25 1.831-.976-1.029-8.247-1.475-9.432a1.484 1.484 0 0 0-.229-.404 4.696 4.696 0 0 0-.312-.748c-.011-.024-.727-1.499-1.089-3.693 3.772-.43 7.584-.888 11.321-1.356v.002l.281-.037 1.185-.15a806.132 806.132 0 0 0 11.603-1.59c.204 2.225-.122 3.843-.128 3.869a4.847 4.847 0 0 0-.115.805 1.511 1.511 0 0 0-.119.448c-.134 1.258-1.077 9.014.939 9.499.198.048.374.07.533.07 1.454 0 1.422-1.823 3.397-1.905 0 0 1.052.033 2.1.702.408.26.85.4 1.266.4.652 0 1.244-.343 1.558-1.107.514-1.255.687-1.778 2.245-1.782 1.558-.005 2.11-.517 2.031-1.26-.045-.425-2.524-2.071-5.219-3.567.12-.519.739-3.488.294-7.454l.154-.022a750.13 750.13 0 0 0 3.205-.506c6.611-1.061 10.957-3.186 13.772-5.747.171-.129.344-.265.518-.407 1.677-1.368 2.785-3.322 3.468-5.621.549-1.614.782-3.221.826-4.714.308-3.947-.127-8.324-.816-12.332 1.176-2.159 3.078-7.073.776-13.566-1.154-3.254-3.078-4.76-5.261-5.308-.244-.967-.496-1.931-.765-2.89-.311-2.005-2.97-9.022-3.847-11.303 0 0-.159-.476-.273-.709l-.007-.014h-.001c-6.179-12.646-15.416-23.57-28.771-27.318-2.251-.631-4.582-.84-6.925-.84-.389 0-.778.005-1.167.016.108-1.997-.2-4.073-.683-4.073-.127 0-.267.145-.414.474-1.116 2.485-5.814 4.1-5.814 4.1 1.825-4.024-1.559-7.97-1.559-7.97m0-6a6 6 0 0 1 4.555 2.094c.385.45.795 1.002 1.194 1.642a6.311 6.311 0 0 1 2.038-.34c1.648 0 3.387.762 4.52 1.958.594.627 1.067 1.399 1.42 2.312 1.576.174 3.052.457 4.455.85 13.58 3.81 24.528 14.06 32.542 30.46.116.238.497 1.206.58 1.457 3.034 7.875 3.773 10.665 3.998 11.782 2.231 1.366 4.447 3.686 5.84 7.615 2.514 7.09 1.275 12.856-.214 16.453.656 4.446.852 8.447.58 11.917-.05 1.969-.435 4.145-1.127 6.18-1.004 3.397-2.83 6.277-5.355 8.337-3.73 3.347-8.512 5.625-14.424 6.918 2.701 1.9 3.65 3.395 3.874 5.504.178 1.688-.582 4.118-1.715 5.382-1.034 1.154-2.37 1.914-3.988 2.272-1.511 2.042-3.676 3.127-6.098 3.127-.896 0-1.79-.153-2.649-.449a7.263 7.263 0 0 1-4.114 1.251c-.475 0-1.48-.125-1.94-.236-6.063-1.459-6.181-8.418-5.751-13.475-1.509.205-2.96.397-4.266.563l-1.941-5.802.822 5.943c-1.47.185-2.902.362-4.31.533 1.71 4.874 3.284 11.57-2.187 14.487-.868.463-2.71.955-3.694.955a7.346 7.346 0 0 1-2.482-.432c-1.02.803-2.663 1.359-4.323 1.359-1.78 0-3.467-.62-4.829-1.745a9.055 9.055 0 0 1-.22.003c-3.682 0-6.62-2.462-7.144-5.986-.307-2.094.234-3.776 2.355-6.278a5.975 5.975 0 0 1-.502-.036l-.975.021c-5.293 0-9.888-1.007-13.658-2.992-3.271-1.479-5.76-3.808-7.713-7.044-1.054-1.596-1.972-3.606-2.604-5.778-.96-2.773-1.72-6.282-2.21-10.283-2.463-2.876-5.903-8.497-5.167-16.907.347-3.978 1.9-7.246 4.469-9.526.111-5.02.544-9.624 1.311-13.994 3.434-19.55 11.167-32.184 22.986-37.552a42.029 42.029 0 0 1 2.18-.911c.63-.294 1.563-.665 2.512-1.009l.023-.008c2.552-.95 6.688-3.44 7.625-6.402a6 6 0 0 1 5.721-4.19z" class="cls-33"/>
            </g>
        </g>
        <g id="illustrasi-maskot">
            <g id="Group_1970" data-name="Group 1970">
                <g id="Group_1967" data-name="Group 1967">
                    <g id="Group_1961" data-name="Group 1961">
                        <path id="Path_2657" d="M821.885 565.637c-5.893 4.18-.233 8.224 4.013 10.75s10.342 5.551 11.358-1.6c1.425-10.012.983-14.889-.994-15.812-1.937-.908-7.185 1.559-14.377 6.662z" class="cls-26" data-name="Path 2657"/>
                    </g>
                    <g id="Group_1962" data-name="Group 1962">
                        <path id="Path_2658" d="M835.1 581.752c-7.2-.577-5.456 6.156-3.819 10.818s4.369 10.9 9.738 6.063c7.518-6.767 10.309-10.791 9.385-12.768-.904-1.932-6.504-3.411-15.304-4.113z" class="cls-26" data-name="Path 2658"/>
                    </g>
                    <g id="Group_1963" data-name="Group 1963">
                        <path id="Path_2659" d="M840.846 598.526c-7.123-1.2-5.973 5.656-4.749 10.445s3.4 11.232 9.172 6.885c8.079-6.083 11.21-9.848 10.462-11.9-.731-2.006-6.19-3.966-14.885-5.43z" class="cls-26" data-name="Path 2659"/>
                    </g>
                    <path id="Path_2660" d="M871.226 640.259c-3.654 1.247-6.367 3.431-10.309 3.871-4.776.531-10.618-.426-13.7-4.463a3.276 3.276 0 0 0-1.211-.981c0-.066-.005-.13-.007-.2-.078-1.911-.16-11.91-.3-15.485-1.853-46.536-10.982-58.744-38.966-58.2-18.232.355-38.575 13.638-36.457 62.045.074 1.647.178 3.23.307 4.76-.165 3.3-.173 6.87-.005 10.727a65.218 65.218 0 0 0 2.014 14.089c-.18 5.061 2.626 10.238 3.992 15.034a47.392 47.392 0 0 0 8.024 16.59c2.237 2.863 6.324 4.491 9.729 2.019 3.8-2.756 3.94-7.4 3.886-11.466a63.3 63.3 0 0 0 21.526-.033c1.784 4.668 5.84 12.18 12.464 11.033a5.851 5.851 0 0 0 3.206-1.574 48.634 48.634 0 0 0 3.233-4.081c0-.014.008-.027.01-.04 2.277-3.425 3.193-7.634 4.274-11.417.235-.825.446-1.656.656-2.489 12.527 3.625 27.5-11.006 33.563-20.582 3.455-5.46 1.232-11.601-5.929-9.157z" class="cls-29" data-name="Path 2660"/>
                    <g id="Group_1964" data-name="Group 1964">
                        <path id="Path_2661" d="M808.947 604.42c-.7 1.494-1.872 2.424-2.605 2.076s-.762-1.838-.057-3.333 1.873-2.423 2.608-2.075.759 1.837.054 3.332z" class="cls-25" data-name="Path 2661"/>
                        <path id="Path_2662" d="M799.242 604.608c.763 1.465 1.965 2.35 2.686 1.973s.687-1.865-.074-3.332-1.966-2.349-2.688-1.973-.686 1.867.076 3.332z" class="cls-25" data-name="Path 2662"/>
                    </g>
                    <path id="Path_2663" d="M816.12 565.8a1.168 1.168 0 0 0-.247-.773.234.234 0 0 1 0-.035c-3.983-9.764-7.072-13.994-9.549-13.813-2.291.167-9.972 14.875-10.023 15.117-.009.037-.012.073-.021.109a1.077 1.077 0 0 0-.354 1.013 6.073 6.073 0 0 0 .112.6c.027 2.6 1.824 4.575 4.185 5.831a11.769 11.769 0 0 0 10.261-.044.1.1 0 0 0 .018-.01 8.235 8.235 0 0 0 5.618-7.995z" class="cls-26" data-name="Path 2663"/>
                    <path id="Path_2664" d="M824.205 633.935c-8.123-7.691-23.734-9.148-33.052-1.333a23.1 23.1 0 0 0-8.43 16.738 22.168 22.168 0 0 0 .064 5.611c.965 6.748 4.354 12.083 11.973 16.087 8.343 4.383 19.7 3.527 26.889-1.806 11.331-8.398 12.107-26.251 2.556-35.297z" class="cls-30" data-name="Path 2664"/>
                    <path id="Path_2665" d="M822.189 642.69c-10.249-4.645-24.112-3.462-33.843 2-1.5.84-.11 3.122 1.391 2.279 8.838-4.953 21.817-6.171 31.15-1.943 1.561.706 2.873-1.626 1.302-2.336z" class="cls-26" data-name="Path 2665"/>
                    <path id="Path_2666" d="M820.128 656.19c-8.968-2.365-18.194-4.129-26.408 1.315-1.434.948-.048 3.238 1.393 2.282 7.612-5.045 16.108-3.182 24.355-1.009a1.336 1.336 0 0 0 .66-2.588z" class="cls-26" data-name="Path 2666"/>
                    <g id="Group_1965" data-name="Group 1965">
                        <path id="Path_2667" d="M848.853 642.591c-2.725 3.576 1.389 4.93 4.381 5.639s7.177 1.379 6.452-3.061c-1.012-6.212-2.18-9.026-3.528-9.21-1.316-.176-3.977 2.264-7.305 6.632z" class="cls-26" data-name="Path 2667"/>
                    </g>
                    <g id="Group_1966" data-name="Group 1966">
                        <path id="Path_2668" d="M864.85 642.144c-.782 3.146 2.328 2.866 4.51 2.481s5.143-1.134 3.4-3.865c-2.445-3.822-4.022-5.355-4.964-5.09-.926.26-1.989 2.63-2.946 6.474z" class="cls-26" data-name="Path 2668"/>
                    </g>
                    <path id="Path_2669" d="M798.776 608.474a12.8 12.8 0 0 1 5.326.945 1.458 1.458 0 0 0 1.3-.063 20.992 20.992 0 0 1 2.669-.8c3.663-.734 7.377 1.45 5.977 3.937a6.7 6.7 0 0 1-3.836 2.741 11.036 11.036 0 0 1-4.931 1.158 3.542 3.542 0 0 1-.97 0c-3.508-.038-7.417-.533-9.14-2.789-1.612-2.114-.123-4.785 3.605-5.129z" class="cls-25" data-name="Path 2669"/>
                </g>
                <path id="Path_2672" d="M785.1 612.461a2.033 2.033 0 0 0 .984-3.841c-8.883-4.294-12.963-11.866-19.317-18.752-2.261-2.45-6.73-5.737-9.739-2.222-7.746 9.044-2.095 24.93 3.648 33.435 2.668 3.947 6.01 8.64 10.891 9.768 4.644 1.072 8.576-5.132 10.794-8.1 2.946-3.955 3.551-7.309 2.739-10.288z" class="cls-29" data-name="Path 2672"/>
                <path id="Path_2673" d="M839.371 611.046a2.034 2.034 0 0 1 3.031-2.558c7.731 6.135 16.322 6.517 25.286 9.244 3.19.971 8.094 3.566 6.237 7.8-4.78 10.907-21.54 12.725-31.7 11.252-4.714-.684-10.395-1.653-13.533-5.559-2.983-3.716.894-9.956 2.6-13.242 2.285-4.374 5.043-6.383 8.079-6.937z" class="cls-29" data-name="Path 2673"/>
                <path id="Path_2674" d="M825.811 597.411c.068 1.1-1.631 1.33-1.7.227a9 9 0 0 0-3.833-6.406c-3.431-2.578-7.56 1.03-8.2 4.489a.909.909 0 0 1-.14.345.772.772 0 0 1-.6.387.79.79 0 0 1-.536-.118c-.024-.011-.041-.025-.065-.037a.552.552 0 0 1-.071-.055.712.712 0 0 1-.289-.756c.715-3.883 4.155-7.24 8.292-6.771 3.8.431 6.925 5.184 7.142 8.695z" class="cls-25" data-name="Path 2674"/>
                <path id="Path_2675" d="M784.721 596.467c-.067 1.1 1.632 1.331 1.7.225a9 9 0 0 1 3.832-6.4c3.434-2.578 7.562 1.028 8.2 4.487a.914.914 0 0 0 .14.347.783.783 0 0 0 .6.387.8.8 0 0 0 .535-.119.5.5 0 0 0 .063-.037.568.568 0 0 0 .072-.055.713.713 0 0 0 .29-.756c-.715-3.881-4.157-7.24-8.292-6.771-3.796.425-6.921 5.176-7.14 8.692z" class="cls-25" data-name="Path 2675"/>
                <g id="Group_1968" data-name="Group 1968">
                    <path id="Path_2676" d="M791.887 581.109c-1.27.386-2.492.913-3.761 1.3a1.338 1.338 0 0 0 .759 2.565c1.27-.385 2.492-.911 3.761-1.3a1.337 1.337 0 0 0-.759-2.565z" class="cls-25" data-name="Path 2676"/>
                </g>
                <g id="Group_1969" data-name="Group 1969">
                    <path id="Path_2677" d="M823.641 583.443a6.7 6.7 0 0 0-3.648-1.435 1.336 1.336 0 0 0-1.309 1.362 1.368 1.368 0 0 0 1.361 1.311 3.452 3.452 0 0 1 1.742.687 1.361 1.361 0 0 0 1.891-.037 1.338 1.338 0 0 0-.037-1.888z" class="cls-25" data-name="Path 2677"/>
                </g>
            </g>
            <g id="Path_2678" class="cls-28" data-name="Path 2678">
                <path d="M760.8 621.081c2.468 3.652 5.516 7.938 9.826 9.451.027.36.051.725.081 1.078-.166 3.3-.174 6.87-.006 10.727a65.343 65.343 0 0 0 2.014 14.089c-.179 5.061 2.625 10.238 3.992 15.034a47.427 47.427 0 0 0 8.024 16.59c2.237 2.863 6.324 4.491 9.73 2.019 3.8-2.756 3.94-7.4 3.886-11.466a63.3 63.3 0 0 0 21.526-.033c1.783 4.668 5.84 12.18 12.463 11.033a5.851 5.851 0 0 0 3.206-1.574 48.483 48.483 0 0 0 3.232-4.081c0-.014.009-.027.011-.04 2.279-3.425 3.193-7.634 4.274-11.417.235-.825.447-1.656.656-2.489 12.527 3.625 27.5-11.006 33.564-20.582 3.289-5.2 1.436-11-4.913-9.454-2.15-3.238-3.572-4.541-4.446-4.3-.922.26-1.986 2.634-2.943 6.474a3.621 3.621 0 0 0-.119.977 14.362 14.362 0 0 1-3.813 1.009c-.455.05-.92.083-1.391.1-.746-4.252-1.574-6.734-2.5-7.745 7.249-1.33 14.109-4.6 16.9-10.954 1.856-4.237-3.047-6.832-6.237-7.8-6.341-1.93-12.495-2.694-18.29-5.142 5.009-4.2 6.937-6.978 6.332-8.633-.652-1.783-5.042-3.529-12.114-4.924q-.193-1.241-.4-2.427c5.857-5.552 8.02-8.971 7.193-10.741-.754-1.612-4.791-2.906-11.211-3.7a35.345 35.345 0 0 0-2.606-5.034 7.859 7.859 0 0 0 .668-2.348c1.423-10.012.983-14.889-1-15.812-1.936-.9-7.183 1.562-14.375 6.665-.242.173-.459.343-.664.515a40.46 40.46 0 0 0-5.261-.957 1.344 1.344 0 0 0-.088-.164.234.234 0 0 1 0-.035c-3.981-9.764-7.072-13.994-9.551-13.813-2.288.167-9.97 14.875-10.02 15.117-.009.037-.013.073-.022.109a.944.944 0 0 0-.188.215c-10.08 3.439-19.344 12.2-23.568 30.095-1.843-2.265-3.681-4.594-5.764-6.851-2.262-2.45-6.731-5.737-9.74-2.222-7.748 9.05-2.096 24.936 3.652 33.441zm85.323 17.409a71.446 71.446 0 0 1-.035-1.338 48.631 48.631 0 0 0 8.053-.218 29.837 29.837 0 0 0-4.545 4.861 9.91 9.91 0 0 1-2.255-2.128 3.263 3.263 0 0 0-1.212-.981c-.006-.066-.007-.13-.01-.196z" class="cls-32"/>
                <path d="M806.602 551.177c-.051 0-.102.002-.153.006-2.288.167-9.97 14.875-10.02 15.117-.009.037-.013.073-.022.109a.944.944 0 0 0-.188.215c-10.08 3.439-19.344 12.197-23.568 30.095-1.843-2.265-3.681-4.594-5.764-6.851-1.553-1.682-4.145-3.757-6.591-3.758-1.118 0-2.205.433-3.149 1.536-7.746 9.044-2.095 24.93 3.649 33.435 2.468 3.652 5.516 7.938 9.826 9.451.027.36.051.725.081 1.078-.166 3.305-.174 6.87-.006 10.727.24 5.453.943 10.11 2.014 14.089-.179 5.061 2.625 10.238 3.992 15.034 1.691 5.932 4.091 11.557 8.024 16.59 1.47 1.883 3.742 3.231 6.093 3.231 1.225 0 2.47-.365 3.637-1.212 3.802-2.756 3.94-7.405 3.886-11.466 4.127.616 7.9.897 11.348.897 3.766 0 7.144-.334 10.178-.93 1.66 4.344 5.288 11.15 11.12 11.15.436 0 .883-.037 1.343-.117 1.389-.238 2.412-.802 3.206-1.574 0 0 2.099-2.376 3.232-4.081.003-.014.009-.027.011-.04 2.279-3.425 3.193-7.634 4.274-11.417a81.26 81.26 0 0 0 .656-2.489c1.334.386 2.697.565 4.073.565 11.543 0 24.07-12.59 29.491-21.147 2.92-4.614 1.786-9.708-2.951-9.708a8.32 8.32 0 0 0-1.962.254c-1.982-2.984-3.345-4.325-4.23-4.325a.794.794 0 0 0-.216.029c-.922.26-1.986 2.634-2.943 6.474a3.621 3.621 0 0 0-.119.977c-1.182.474-2.419.854-3.813 1.009-.455.05-.92.083-1.391.104-.746-4.252-1.574-6.734-2.496-7.745 7.249-1.33 14.109-4.595 16.895-10.954 1.856-4.237-3.047-6.832-6.237-7.803-6.341-1.93-12.495-2.694-18.29-5.142 5.009-4.204 6.937-6.978 6.332-8.633-.652-1.783-5.042-3.529-12.114-4.924-.129-.827-.263-1.635-.404-2.427 5.857-5.552 8.02-8.971 7.193-10.741-.754-1.612-4.791-2.906-11.211-3.699-.787-1.847-1.651-3.522-2.606-5.034.302-.619.532-1.39.668-2.348 1.423-10.012.983-14.889-.996-15.812-.264-.123-.59-.184-.972-.184-2.43 0-7.19 2.44-13.403 6.849-.242.173-.459.343-.664.515a40.46 40.46 0 0 0-5.261-.957c-.03-.054-.051-.115-.088-.164 0-.011.002-.022.004-.035-3.9-9.564-6.945-13.819-9.398-13.819m42.99 90.618a9.91 9.91 0 0 1-2.255-2.128 3.263 3.263 0 0 0-1.212-.981l-.006-.196a71.364 71.364 0 0 1-.035-1.338 48.386 48.386 0 0 0 8.053-.218c-1.235.966-2.783 2.62-4.545 4.861m-42.99-96.618c5.8 0 9.765 5.638 13.619 14.395 8.87-6.052 12.902-6.784 15.191-6.784.878 0 2.717.377 3.513.749 5.884 2.744 6.045 10.487 4.395 22.091-.035.251-.076.498-.122.74l.17.323c7.274 1.232 11.007 3.234 12.596 6.632 1.88 4.024.045 8.075-3.026 11.89 4.88 1.689 7.494 3.792 8.551 6.683 1.001 2.739.427 5.318-1.042 7.765.48.115.964.229 1.453.344 2.516.593 5.072 1.2 7.66 1.987 2.817.858 7.862 2.987 9.987 7.606 1.207 2.622 1.206 5.586-.002 8.344a20.884 20.884 0 0 1-3.84 5.848c3.4.387 6.203 2.214 7.817 5.144 2.15 3.905 1.698 9.152-1.177 13.695-5.205 8.215-18.997 23.688-34.193 23.935-.931 3.373-2.043 7.104-4.282 10.525-.035.07-.07.13-.103.18-1.312 1.974-3.732 4.732-3.732 4.732-2.049 2.016-4.194 3.088-6.69 3.516-.8.138-1.588.204-2.356.204-5.912 0-11.026-3.71-14.705-10.557-2.125.223-4.33.336-6.593.336a75.86 75.86 0 0 1-5.79-.23c-.654 3.366-2.221 6.974-5.923 9.657-2.12 1.54-4.597 2.354-7.158 2.354-4.067 0-8.112-2.07-10.821-5.537-4.03-5.158-6.912-11.08-9.066-18.64-.38-1.329-.886-2.688-1.394-4.07-1.305-3.55-2.774-7.542-2.834-11.863-1.094-4.333-1.767-9.23-2.002-14.57-.13-2.983-.16-5.799-.096-8.462-4.115-2.791-6.93-6.957-8.782-9.699-5.81-8.601-13.96-28.174-3.235-40.697 2.005-2.342 4.742-3.633 7.705-3.633 4.221 0 7.755 2.538 9.934 4.606 5.627-13.34 14.292-19.795 21.754-22.901 2.587-5.465 8.382-16.204 14.03-16.616.145-.01.443-.022.589-.022z" class="cls-33"/>
            </g>
        </g>
    </g>
</svg>
