<svg xmlns="http://www.w3.org/2000/svg" xmlns:xlink="http://www.w3.org/1999/xlink" width="290.338" height="212.358" viewBox="0 0 290.338 212.358">
    <defs>
        <style>
            .cls-1{fill:url(#radial-gradient)}.cls-2{fill:#fff396}.cls-3{fill:#fff}.cls-4{fill:url(#radial-gradient-2)}.cls-5{fill:url(#radial-gradient-3)}.cls-6{fill:#fff0bf}
        </style>
        <radialGradient id="radial-gradient" cx=".5" cy=".5" r=".606" gradientTransform="matrix(.718 0 0 1 -.462 0)">
            <stop offset="0" stop-color="#ffa008"/>
            <stop offset=".871" stop-color="#ff5e08"/>
        </radialGradient>
        <radialGradient id="radial-gradient-2" cx=".5" cy=".5" r=".616" gradientTransform="matrix(.701 0 0 1 -.496 0)">
            <stop offset="0" stop-color="#fcd84a"/>
            <stop offset=".995" stop-color="#ffbc2b"/>
        </radialGradient>
        <radialGradient id="radial-gradient-3" cx=".5" cy=".5" r=".61" gradientTransform="matrix(.711 0 0 1 -.551 0)" xlink:href="#radial-gradient"/>
    </defs>
    <g id="BG_popup" transform="translate(-2432.887 -172.733)">
        <g id="Group_885" data-name="Group 885">
            <path id="Path_1164" d="M2723.225 356.332c0 15.818-11.025 28.759-24.5 28.759h-241.341c-13.473 0-24.5-12.941-24.5-28.759V205.313c0-15.817 11.024-28.758 24.5-28.758h241.344c13.472 0 24.5 12.941 24.5 28.758z" class="cls-1" data-name="Path 1164"/>
            <path id="Path_1165" d="M2721.718 353.766c0 15.3-10.909 27.81-24.243 27.81h-238.839c-13.333 0-24.242-12.515-24.242-27.81v-149.4c0-15.295 10.909-27.809 24.242-27.809h238.839c13.334 0 24.243 12.514 24.243 27.809z" class="cls-2" data-name="Path 1165"/>
            <path id="Path_1166" d="M2721.718 350.168c0 15.34-10.909 27.892-24.243 27.892h-238.839c-13.333 0-24.242-12.552-24.242-27.892V200.625c0-15.34 10.909-27.892 24.242-27.892h238.839c13.334 0 24.243 12.552 24.243 27.892z" class="cls-3" data-name="Path 1166"/>
            <path id="Path_1167" d="M2721.718 351.2c0 14.773-10.909 26.86-24.243 26.86h-238.839c-13.333 0-24.242-12.087-24.242-26.86V203.415c0-14.773 10.909-26.86 24.242-26.86h238.839c13.334 0 24.243 12.087 24.243 26.86z" class="cls-4" data-name="Path 1167"/>
            <path id="Path_1168" d="M2710.456 347.986c0 12.7-10.055 23.088-22.343 23.088H2468c-12.288 0-22.343-10.389-22.343-23.088V206.628c0-12.7 10.055-23.088 22.343-23.088h220.115c12.288 0 22.343 10.389 22.343 23.088z" class="cls-2" data-name="Path 1168"/>
            <path id="Path_1169" d="M2707 344.892c0 12.288-9.792 22.342-21.76 22.342h-214.373c-11.968 0-21.76-10.054-21.76-22.342V206.159c0-12.289 9.792-22.344 21.76-22.344h214.377c11.968 0 21.76 10.055 21.76 22.344z" class="cls-5" data-name="Path 1169"/>
            <path id="Path_1170" d="M2703.3 341.752a21.346 21.346 0 0 1-21.145 21.418h-208.323a21.346 21.346 0 0 1-21.145-21.418V208.765a21.345 21.345 0 0 1 21.145-21.418h208.319a21.346 21.346 0 0 1 21.145 21.418z" class="cls-6" data-name="Path 1170"/>
        </g>
        <path id="Path_1171" d="M2708.043 372.7a3.47 3.47 0 1 1-2.233-4.123 3.323 3.323 0 0 1 2.233 4.123z" class="cls-2" data-name="Path 1171"/>
        <path id="Path_1172" d="M2718.285 360.7c-1.35 3.909-4.151 6.49-6.257 5.763s-2.718-4.486-1.367-8.4 4.153-6.489 6.258-5.762 2.717 4.49 1.366 8.399z" class="cls-2" data-name="Path 1172"/>
        <path id="Path_1173" d="M2451.573 187.979c.829 2.067-.533 4.56-3.044 5.566s-5.217.147-6.046-1.92.534-4.559 3.043-5.566 5.218-.147 6.047 1.92z" class="cls-2" data-name="Path 1173"/>
        <path id="Path_1174" d="M2466.077 177.807c.537 1.341-2.312 3.746-6.367 5.372s-7.776 1.857-8.314.516 2.312-3.746 6.367-5.372 7.776-1.857 8.314-.516z" class="cls-2" data-name="Path 1174"/>
    </g>
</svg>
