<svg xmlns="http://www.w3.org/2000/svg" width="361.457" height="640.084"><defs><clipPath id="clip-path"><path id="BG" d="M0 0h361.457v640.084H0z" class="cls-1" transform="translate(1841.525 34.916)"/></clipPath><style>.cls-1{fill:#ffa910}.cls-11,.cls-33{fill:#fff}.cls-4{fill:#30193b}.cls-5{fill:#ff97a6}.cls-6{fill:#7f65c1}.cls-7{fill:#59499e}.cls-8{fill:#3b2b5b}.cls-9{fill:#d5eaf5}.cls-10{fill:#d3e7f2}.cls-12{fill:#c95d77}.cls-13{fill:#ff5e4d}.cls-14{fill:#ff8980}.cls-15{fill:#aacbe8}.cls-16{fill:#80540a}.cls-17{fill:#a87c1b}.cls-21{fill:#ed5724}.cls-24{fill:#d26528}.cls-25{fill:#402312}.cls-26{fill:#f68d1e}.cls-27{fill:#f9a223}.cls-28{fill:none;stroke-linecap:round;stroke-linejoin:round}.cls-29{fill:#fcb514}.cls-32,.cls-33{stroke:none}</style></defs><g id="BG-2" data-name="BG" transform="translate(-1841.525 -34.916)" clip-path="url(#clip-path)"><path id="BG-3" d="M0 0h361.457v640.084H0z" class="cls-1" data-name="BG" transform="translate(1841.525 34.916)"/><path id="illustrasi-cloud" d="M0 89.036V36.771c.051-.045.1-.094.153-.139a12.753 12.753 0 019.814-2.318c.912-3.483 4.971-6.417 9.741-7.015 4.61-.573 9.564 1.074 12.087 3.948.528-6.192 1.712-13.044 7.834-17.392 5.09-3.616 13.424-4.892 20.738-3.174a27.752 27.752 0 0114.065 8.059 15.683 15.683 0 016.85.032 15.21 15.21 0 012.993 1.042 33.471 33.471 0 011.985-3.291C91.412 9.009 99.949 3.388 109.683 1.1c10.654-2.5 22.8-.644 30.212 4.623 8.918 6.332 10.643 16.317 11.412 25.336 8.176-1.846 13.479-1.1 16.846.914a8.921 8.921 0 016.423.884c.451-4.169 1.248-8.47 4.926-11.81 3.463-3.141 8.823-4.344 14.072-3.11 11.565 2.717 13.484 12.2 15.624 20.05 1.188-3.79 4.951-7.112 10.1-8.346 5.995-1.445 12.738.225 16.686 3.721a7.4 7.4 0 016.675-5.241 7.8 7.8 0 016.164 2.038c.595-5.566 15.879-12.281 23.307-10.849 16.23 3.132 17.477 13.012 15.9 18.923h8.311a12.663 12.663 0 018.613-4.676c4.606-.573 9.563 1.073 12.085 3.947.529-6.191 1.713-13.045 7.834-17.392 5.092-3.615 13.424-4.892 20.739-3.173A27.748 27.748 0 01359.676 25a15.683 15.683 0 016.85.031 15.254 15.254 0 012.991 1.043 34.065 34.065 0 011.985-3.292c5.152-7.515 13.691-13.135 23.424-15.423 10.654-2.5 22.8-.646 30.212 4.622 8.919 6.333 10.643 16.317 11.411 25.338 8.177-1.847 13.478-1.1 16.846.913a10.293 10.293 0 014.259 0h2.266c.476-3.888 1.407-7.824 4.825-10.929a13.9 13.9 0 016.3-3.177v64.91z" transform="translate(1794.233 606.017)" stroke="transparent" stroke-miterlimit="10" fill="#fff"/><g id="illustrasi-hero"><g id="Group_897" data-name="Group 897"><path id="Path_1203" d="M2178.9 179.78s9.676 16.085 26.422 26.73 31.539 10.628 34.733 9.719c0 0-5.176-3.748.391-9.9s12.906-5.295 17.008-18.549c3.581-11.564-1.693-21.6-3.1-23.977a.324.324 0 00-.572.018c-1.148 2.339-6.574 11.1-21.468 5.724-22.032-7.952-32.573-7.922-41.795-3.213s-6.78 4.988-6.78 4.988z" class="cls-4" data-name="Path 1203"/></g><g id="Group_899" data-name="Group 899"><g id="Group_898" data-name="Group 898"><path id="Path_1204" d="M2262.8 211.626c-2.448-.451-26.232-4.937-34.726-7.35-9.648-2.738-29.546-12.581-30.416-15.454.331-2.52 4-7.208 5.569-10.739.181.045 5.543-2.21 10.625-2.291 7.918-.132 44.386 25.44 51.521 29.093 1.558.488-.178.537-.227.471s-47.669-15.694-47.669-15.694 45.636 21.464 45.7 21.457c.302.493-.317.581-.377.507z" class="cls-5" data-name="Path 1204"/></g></g><g id="Group_901" data-name="Group 901"><g id="Group_900" data-name="Group 900"><path id="Path_1205" d="M2199.778 177.926c-.512 1.283 7.907-3.974 12.987-4.061 7.919-.127 13.576 2.447 20.712 6.1.963.491-6.821 24.332-8.913 23.728-13.5-3.878-26.483-12.194-27.6-14.915a43.849 43.849 0 012.814-10.852z" class="cls-6" data-name="Path 1205"/></g></g><g id="Group_903" data-name="Group 903"><g id="Group_902" data-name="Group 902"><path id="Path_1206" d="M2230.01 192.689s-3.8 11.231-5.446 11.006c-13.917-1.883-26.483-12.194-27.6-14.915.145-1.106 2.3-3.666 2.673-5.351.247-1.1 5.031 7.211 13.177 9.732 12.893 3.99 17.196-.472 17.196-.472z" class="cls-7" data-name="Path 1206"/></g></g><g id="Group_906" data-name="Group 906"><g id="Group_904" data-name="Group 904"><path id="Path_1207" d="M2270.7 204.766c-.263-.573-3.152-.389-4-.06.341-.012.918.066.765.465a2.025 2.025 0 01-2.019.906 5.779 5.779 0 00.961 1.211c.4.396 4.908-1.188 4.293-2.522z" class="cls-8" data-name="Path 1207"/></g><g id="Group_905" data-name="Group 905"><path id="Path_1208" d="M2268.29 205.085c.153-.4-1.1-.418-1.442-.4a5.383 5.383 0 00-1.063.249.882.882 0 01-.585-.132l-.351.258a1.031 1.031 0 01.457.671 1.466 1.466 0 00.137.35c.692.165 2.617-.412 2.847-.996z" class="cls-5" data-name="Path 1208"/></g></g><g id="Group_909" data-name="Group 909"><g id="Group_907" data-name="Group 907"><path id="Path_1209" d="M2266.435 215.278c-.58.246-2.6-1.83-3-2.642.243.235.727.566.879.165a2.019 2.019 0 00-.884-2.025 5.73 5.73 0 011.523-.25c.563-.026 2.847 4.174 1.482 4.752z" class="cls-8" data-name="Path 1209"/></g><g id="Group_908" data-name="Group 908"><path id="Path_1210" d="M2264.87 213.421c-.155.4-1.1-.432-1.341-.669a5.617 5.617 0 01-.62-.9.865.865 0 00-.519-.295l-.087-.427a1.018 1.018 0 00.787-.187 1.436 1.436 0 01.34-.169c.624.34 1.664 2.064 1.44 2.647z" class="cls-5" data-name="Path 1210"/></g></g><g id="Group_914" data-name="Group 914"><g id="Group_913" data-name="Group 913"><g id="Group_912" data-name="Group 912"><path id="Path_1212" d="M2151.355 159.2a.97.97 0 011.139.024c2.425 1.886 14.113 10.631 15.006 11.967.821 1.226 7.149 6.145 3.369 6.885-1.637.318-11.382-5.154-13-6.185-6.074-3.873-12.769-8.558-6.514-12.691z" class="cls-10" data-name="Path 1212"/></g></g></g><g id="Group_916" data-name="Group 916"><g id="Group_915" data-name="Group 915"><path id="Path_1213" d="M2167.994 149.951a7.417 7.417 0 00-.845 4.337l16.376 2.461 4.884 10.229a1.36 1.36 0 01-.514 1.74 21.887 21.887 0 00-6.536 7.023c-4.144 4.837-18.512-8.552-18.512-8.552l-.552 6.51a48.956 48.956 0 0012.06 6.242 17.573 17.573 0 006.018 1.319 35.673 35.673 0 006.568 4.879c2.249 1.323 10.019 2.641 10.019 2.641.544.818 7-2.777 6.3-11.966-.739-.285-5.727-4.391-10.467-8.941-.074-4.664-1-13.116-4.693-16.851-3.661-3.694-16.959-6.055-20.106-1.071z" class="cls-11" data-name="Path 1213"/></g></g><g id="Group_919" data-name="Group 919"><g id="Group_918" data-name="Group 918"><g id="Group_917" data-name="Group 917"><path id="Path_1214" d="M2168.135 152.166a.418.418 0 00-.141-.482c-.38-.292-1.273-.979-1.983-1.533 0 0-1.1-.839-1.812-.626 0 0-.159.205.231.363 0 0-1.08-.256-1.3.014s.219.546.219.546a.285.285 0 00-.216.354 5.363 5.363 0 002.254 1.353s-.795-.162-.77.1 1.574.656 2.059.494a4.755 4.755 0 01.875.07c.201.049.467-.339.584-.653z" class="cls-5" data-name="Path 1214"/></g></g></g><g id="Group_922" data-name="Group 922"><g id="Group_921" data-name="Group 921"><g id="Group_920" data-name="Group 920"><path id="Path_1215" d="M2149.966 160.975a.42.42 0 01-.5-.061c-.347-.33-.654-.42-1.313-1.037 0 0-.939-.794-.684-1.5a2.181 2.181 0 011.29-.985c.293.027.511.32.687.37a.794.794 0 01.52.113 2.443 2.443 0 01.235 1.543s.2.6.318.881c.081.191-.261.514-.553.676z" class="cls-5" data-name="Path 1215"/></g></g></g><g id="Group_923" data-name="Group 923"><path id="Path_1216" d="M2183.465 172.591s1.242-1.3 2.038-.613c.575.5.019 2.2-.437 3.3-.1.24-.367.677-.834.51-.128-.048.461.335.43.4 0 0 1.616-.42 2.85-3.533a14.5 14.5 0 001.015-5.273c-.021-.128-.41-.677-5.4 3.274-1.385 1.092.338 1.935.338 1.935z" class="cls-8" data-name="Path 1216"/></g><g id="Group_925" data-name="Group 925"><g id="Group_924" data-name="Group 924"><path id="Path_1217" d="M2181.359 175.741c-4.144 4.837-18.512-8.552-18.512-8.552l-.552 6.51a48.956 48.956 0 0012.06 6.242 17.573 17.573 0 006.018 1.319 35.673 35.673 0 006.568 4.879c2.249 1.323 10.019 2.641 10.019 2.641.166.251 1.184.311 2.951-1.445a7.516 7.516 0 001.761-2.422s-7.273 1.378-12.524-1.292c-6.786-3.448-6.728-9.606-7.789-7.88z" class="cls-10" data-name="Path 1217"/></g></g><g id="Group_926" data-name="Group 926"><path id="Path_1218" d="M2183.089 172.769a3.823 3.823 0 00.538 2.525 1.617 1.617 0 002.047.176 4.8 4.8 0 01-3.182 1.465c-2.361-.042-2.255-.391-2.255-.391a11.941 11.941 0 011.882-4.493c1.147-1.419.97.718.97.718z" class="cls-8" data-name="Path 1218"/></g><g id="Group_931" data-name="Group 931"><g id="Group_928" data-name="Group 928"><g id="Group_927" data-name="Group 927"><path id="Path_1219" d="M2181.158 170.205a25.687 25.687 0 013.371 2.175c.222.387.246 1.255-.717 1.055s-3.289-2.362-3.289-2.362z" class="cls-5" data-name="Path 1219"/></g></g><g id="Group_930" data-name="Group 930"><g id="Group_929" data-name="Group 929"><path id="Path_1220" d="M2180.723 169.809a27.8 27.8 0 013.359 2.289c.217.388.116 1.295-.85 1.093s-3.145-2.514-3.145-2.514z" class="cls-12" data-name="Path 1220"/></g></g></g><g id="Group_932" data-name="Group 932"><path id="Path_1221" d="M2180.282 172.539s-2.77.754-4.8-2.77 2.24-5.479 2.24-5.479-2.3-1.86.068-3.111 3.979-.975 4.97-.259c1.026.747.619 2.4-.159 3.2 0 0 2.643 1.22 2.952 2.46.412 1.664.057 3.067-3.718 4.677z" class="cls-13" data-name="Path 1221"/></g><g id="Group_934" data-name="Group 934"><g id="Group_933" data-name="Group 933"><path id="Path_1222" d="M2177.8 170.016c-.039-1.581 2.609-2.992 3.234-3.017.685-.026 1.175.635 1.551 1.122s1.576 2.865.189 4.3c-2.6 2.691-4.974-2.405-4.974-2.405z" class="cls-5" data-name="Path 1222"/></g></g><g id="Group_935" data-name="Group 935"><path id="Path_1223" d="M2177.722 164.29a3.174 3.174 0 01-.833-1.3 1.293 1.293 0 01.01-.714 1.313 1.313 0 01.418-.57 4.967 4.967 0 011.349-.7 6.346 6.346 0 011.479-.4 3.829 3.829 0 011.484.065 3.094 3.094 0 01.681.268 1.608 1.608 0 01.545.422 1.666 1.666 0 01.246 1.323 2.917 2.917 0 01-.632 1.311l-.009.012a.181.181 0 00.018.256.155.155 0 00.047.031 11.447 11.447 0 011.7.92 5.176 5.176 0 01.767.588 2.075 2.075 0 01.561.782 1.883 1.883 0 00-.47-.868 5.236 5.236 0 00-.722-.69 10.493 10.493 0 00-1.682-1.066l.055.294a3.036 3.036 0 00.808-1.481 2.061 2.061 0 00-.3-1.714 3.47 3.47 0 00-3.165-.926 6.841 6.841 0 00-1.57.483 5.2 5.2 0 00-1.407.857 1.617 1.617 0 00-.456.731 1.382 1.382 0 00.066.848 2.949 2.949 0 001.012 1.238z" class="cls-14" data-name="Path 1223"/></g></g><g id="illustrasi-hero-2" data-name="illustrasi-hero"><g id="Group_937" data-name="Group 937"><path id="Path_1224" d="M1866.2 169.287s4.312 1.682 8.594 7c0 0 .037 3.128-1.24 3.937s-5.009-6.609-5.009-6.609z" class="cls-13" data-name="Path 1224"/></g><g id="Group_938" data-name="Group 938"><path id="Path_1225" d="M1784.387 177.267s14.8.182 16.76 15.977c2.245 18.049 12.118 14.594 13.74 18.177s31.054-18.362 31.054-18.362l24.658-18.81s-21.923-11.085-40.609-10.3-43.242 11.351-45.603 13.318z" class="cls-13" data-name="Path 1225"/></g><g id="Group_939" data-name="Group 939"><path id="Path_1226" d="M1876.729 183.307c-.537-2.285-3.122-6-7.9-10.94a13.889 13.889 0 00-6.309-3.351s-10.59 14.306-12.371 15.326c.784 3.974 7.824 12.277 9.643 13.3a1.334 1.334 0 01.4-.265 42.09 42.09 0 0016.537-14.07z" class="cls-9" data-name="Path 1226"/></g><g id="Group_940" data-name="Group 940"><path id="Path_1227" d="M1877.021 183.07c-.365-1.552-3.409-5.631-5.711-8.44-1.085-1.325.818 8.045-4.559 13.06-5.951 5.554-11.366 5.426-11.366 5.426s2.919 3.828 4.405 4.526a1.334 1.334 0 01.4-.265 43.891 43.891 0 0016.831-14.307z" class="cls-15" data-name="Path 1227"/></g><g id="Group_941" data-name="Group 941"><path id="Path_1228" d="M1880.049 171.173s1.484.448.4 2.835-2.19 2.414-2.19 2.414z" class="cls-8" data-name="Path 1228"/></g><g id="Group_942" data-name="Group 942"><path id="Path_1229" d="M1875.045 170.238a3.513 3.513 0 00-1.9 2.878 2.011 2.011 0 001.667 2.38z" class="cls-16" data-name="Path 1229"/></g><g id="Group_943" data-name="Group 943"><path id="Path_1230" d="M1875.1 166.2a.127.127 0 00-.21-.106 3.421 3.421 0 00-1.066 4.124c1.736 3.812 6.018 2.734 5.719 5.241 0 0 2.7-2.888 2.149-5.061-.471-1.844-2.945-2.414-4.454-2.326-1.298.07-2.295-.257-2.138-1.872z" class="cls-16" data-name="Path 1230"/></g><g id="Group_944" data-name="Group 944"><path id="Path_1231" d="M1881.689 170.393a2.621 2.621 0 00-1.108-1.333 4.787 4.787 0 00-1.622-.615 6.605 6.605 0 00-1.728-.1 2.578 2.578 0 01-1.937-.451 1.647 1.647 0 01-.49-.971 2.5 2.5 0 01-.032-.506l.016-.246a.182.182 0 00.2.2c.177-.072.023.007-.007.05l-.152.144q-.15.151-.283.312a3.889 3.889 0 00-.461.7 2.892 2.892 0 00-.314 1.6 4.279 4.279 0 00.547 1.614l.066.128-.089.083a3.754 3.754 0 00-.744.951 4.357 4.357 0 00-.4 1.174 3.521 3.521 0 01.9-2.364l-.024.21a4.705 4.705 0 01-.744-1.733 3.183 3.183 0 01.277-1.915 3.737 3.737 0 01.511-.822c.1-.127.209-.248.322-.363l.171-.167.09-.081a.48.48 0 01.08-.065.438.438 0 01.668.411l-.009.2a2.428 2.428 0 00.019.4 1.017 1.017 0 00.293.618 2.176 2.176 0 001.494.35 5.983 5.983 0 011.858.235 4.527 4.527 0 011.674.819 2.547 2.547 0 01.958 1.533z" class="cls-17" data-name="Path 1231"/></g><g id="Group_947" data-name="Group 947"><g id="Group_945" data-name="Group 945"><path id="Path_1232" d="M1804.94 229.814c1.512.41 1.731-1.89 2.43-3.235-.347.376-.809.726-.875.02-.1-1.031.61-3.124 1.437-3.628a4.591 4.591 0 00-1.711-.619c-.65-.113-2.511 7.129-1.281 7.462z" class="cls-8" data-name="Path 1232"/></g><g id="Group_946" data-name="Group 946"><path id="Path_1233" d="M1806.495 226.6c.066.706.528.356.875-.02.435-.834.763-1.541.867-1.692a1.06 1.06 0 01.691-.443l.177-.43s-.67.175-.823-.713c-.025-.151-.211-.232-.35-.33-.832.503-1.532 2.596-1.437 3.628z" class="cls-5" data-name="Path 1233"/></g></g><g id="Group_950" data-name="Group 950"><g id="Group_948" data-name="Group 948"><path id="Path_1234" d="M1778.531 231.985c-.323-1.4 2.448-1.43 4.488-2.038-.386.15-1 .528-.631.9a2.493 2.493 0 002.725.028 7.076 7.076 0 01-.488 1.84c-.258.648-5.685 1.044-6.094-.73z" class="cls-8" data-name="Path 1234"/></g><g id="Group_949" data-name="Group 949"><path id="Path_1235" d="M1781.41 231.16c-.372-.374 1.042-1.017 1.43-1.169a7.009 7.009 0 011.324-.243 1.075 1.075 0 00.6-.436l.524.118a1.255 1.255 0 00-.186.981 1.77 1.77 0 01.016.467c-.702.532-3.164.829-3.708.282z" class="cls-5" data-name="Path 1235"/></g></g><g id="Group_951" data-name="Group 951"><path id="Path_1236" d="M1871.894 183.164s6.612 4.024 27.821-9.809c3.965-2.587 2.958-8.8 2.958-8.8s-5.276-2.715-7.159-.9l-11.032 10.639s-6.241 5.23-9.669 4.674c-1.128-.184-3-2.783-3-2.783z" class="cls-15" data-name="Path 1236"/></g><g id="Group_952" data-name="Group 952"><path id="Path_1237" d="M1850.147 184.342c-.191.108-6.5-1.126-12.432-.166-6.554 1.062-10.154 5.7-17.382 11.918-7.619 6.559-28.916 24.715-35.861 31.158-.937.869 1.228 4.485 2.558 3.636 8.347-5.334 55.421-31.819 55.421-31.819l-2.647 18.057-31.545 6.134.168 1.992s30.182 6.76 39.119.473c6.2-4.362 10.144-25.914 12.244-28.083-1.819-1.023-8.859-9.326-9.643-13.3z" class="cls-6" data-name="Path 1237"/></g><g id="Group_954" data-name="Group 954"><path id="Path_1239" d="M1845.337 165.046c-4.464.336-22.193 7.36-19.86 12.5a6.2 6.2 0 003.32 2.745l19.143-7.9 15.017 1.669 2.743-3.814s-12.539-5.788-20.363-5.2z" class="cls-9" data-name="Path 1239"/></g><g id="Group_967" data-name="Group 967"><g id="Group_957" data-name="Group 957"><g id="Group_956" data-name="Group 956"><g id="Group_955" data-name="Group 955"><path id="Path_1240" d="M1819.78 177.912l2.985-1.332a.4.4 0 01.528.2l2.239 5.018a.4.4 0 01-.2.529l-2.985 1.332zm2.815-.1l-1.418.632 1.7 3.817 1.419-.631z" class="cls-17" data-name="Path 1240"/></g></g></g><g id="Group_960" data-name="Group 960"><g id="Group_959" data-name="Group 959"><g id="Group_958" data-name="Group 958"><path id="Path_1241" d="M1807.639 178.59l6.089 13.652a1.871 1.871 0 002.472.948l8.635-3.852a1.871 1.871 0 00.947-2.472l-6.09-13.654a1.871 1.871 0 00-2.472-.945l-8.634 3.851a1.87 1.87 0 00-.947 2.472z" class="cls-17" data-name="Path 1241"/></g></g></g><g id="Group_963" data-name="Group 963"><g id="Group_962" data-name="Group 962"><g id="Group_961" data-name="Group 961"><path id="Path_1242" d="M1812.761 176.558l5.9 13.232a2.105 2.105 0 002.776 1.064l3.4-1.516a1.871 1.871 0 00.947-2.472l-6.09-13.654a1.871 1.871 0 00-2.472-.945l-3.4 1.514a2.1 2.1 0 00-1.061 2.777z" class="cls-16" data-name="Path 1242"/></g></g></g><g id="Group_966" data-name="Group 966"><g id="Group_965" data-name="Group 965"><g id="Group_964" data-name="Group 964"><path id="Rectangle_16" d="M0 0h2.95v1.506H0z" data-name="Rectangle 16" transform="rotate(-114.026 967.552 -496.456)" fill="#ffcb48"/></g></g></g></g><g id="Group_971" data-name="Group 971"><g id="Group_970" data-name="Group 970"><g id="Group_969" data-name="Group 969"><g id="Group_968" data-name="Group 968"><path id="Path_1243" d="M1826.108 177.278a10.266 10.266 0 00-2.381.562c-.757.444-.683 1.608-.45 1.443a1.549 1.549 0 01.909-.192c.167.089.161.43.34.631s.147-.469.414-.619 1.989-.522 1.168-1.825z" class="cls-5" data-name="Path 1243"/></g></g></g></g><g id="Group_975" data-name="Group 975"><g id="Group_974" data-name="Group 974"><g id="Group_973" data-name="Group 973"><g id="Group_972" data-name="Group 972"><path id="Path_1244" d="M1901.991 164.542a10.79 10.79 0 011.9-1.671c.8-.353 1.334.677 1.161.861a.736.736 0 01-.324.159s.18-.065.238.2-.531.385-.809.513-1.588 1.365-2.166-.062z" class="cls-5" data-name="Path 1244"/></g></g></g></g><g id="Group_976" data-name="Group 976"><path id="Path_1245" d="M1844.107 165.291s-21.448-5.9-40.587 1.842-19.133 10.134-19.133 10.134 6.792-3.118 14.342 2.874a.309.309 0 00.472-.1c1.195-2.374 9.42-16.016 40.258-14.8 1.604.066 4.648.05 4.648.05z" data-name="Path 1245" fill="#ff9645"/></g><g id="Group_977" data-name="Group 977"><path id="Path_1246" d="M1870.215 180.883s3.248-.979 3.238-2.992c-.009-1.727 2.021-2.056 1.743 1.518-.062.826-1.334 2.671-2.812 2.421-1.802-.304-2.169-.947-2.169-.947z" class="cls-13" data-name="Path 1246"/></g><g id="Group_980" data-name="Group 980"><g id="Group_978" data-name="Group 978"><path id="Path_1247" d="M1874.709 174.122s-3.906 1.717-4.032 2.331a2.1 2.1 0 001.681 2.345c1.381.12 3.8-2.727 3.8-2.727z" class="cls-5" data-name="Path 1247"/></g><g id="Group_979" data-name="Group 979"><path id="Path_1248" d="M1871.942 175.483a5.047 5.047 0 001.848 2.776 11.68 11.68 0 001.709-1.475l-1.674-2.258c-.553.26-1.269.613-1.883.957z" class="cls-12" data-name="Path 1248"/></g></g><g id="Group_981" data-name="Group 981"><path id="Path_1249" d="M1878.952 177.007a6.2 6.2 0 00.988-3.439c-.132-1.187-3.948-2.01-4.658-1.807-.778.219-1.088 1.143-1.332 1.826a5.2 5.2 0 00-.207 2.7 3.332 3.332 0 001.8 1.664c1.896.569 2.589.249 3.409-.944z" class="cls-5" data-name="Path 1249"/></g><g id="Group_982" data-name="Group 982"><path id="Path_1250" d="M1870.3 180.994s-.162-.08-.287-.594c-.661-2.721-3.776-11.828-17.332-14.6a25.619 25.619 0 0116.325 5.3s4.395 4.276 1.595 9.341a2.8 2.8 0 01-.301.553z" class="cls-13" data-name="Path 1250"/></g><g id="Group_984" data-name="Group 984"><path id="Path_1252" d="M1842.451 199.069l-2.647 18.057-31.545 6.134.168 1.992s30.182 6.76 39.119.473c6.2-4.362 10.144-25.914 12.244-28.083a51.176 51.176 0 01-4.405-4.526 25.619 25.619 0 01-6.654 3.741c-3.18 1.23-6.28 2.212-6.28 2.212z" class="cls-7" data-name="Path 1252"/></g></g><g id="illustrasi-hero-3" data-name="illustrasi-hero"><g id="Group_986" data-name="Group 986"><path id="Path_1253" d="M2177.673 429.067a29.2 29.2 0 0131.9 1.394c16.007 11 27.551 20.321 45.379 12.686a.213.213 0 01.228.355 22.468 22.468 0 00-7.786 13.322c-1.659 9.751-2.648 14.806-12.2 19.82s-11.49 5.628-10.445 13.132c0 0-15.337 2.761-28.389-21.922s-18.687-38.787-18.687-38.787z" class="cls-13" data-name="Path 1253"/></g><g id="Group_987" data-name="Group 987"><path id="Path_1254" d="M2182.34 429.765c-4.8.833-10.341 4.828-12.645 6.783l-.009.01c-.279.235 1.424 4.765 1.424 4.765 2.6 5.626 8.823 11.2 12.626 13.967a1.742 1.742 0 01.48.423c2.006-.39 10.918-5.987 12.869-9.44-.844-.939-5-7.474-8.011-12.3-2.627-4.217-5.474-4.425-6.734-4.208z" class="cls-11" data-name="Path 1254"/></g><g id="Group_988" data-name="Group 988"><path id="Path_1255" d="M2182.34 429.765a32.187 32.187 0 00-8.508 3.462c-2.342 1.371 14.761 20.434 17.768 18.256 2.389-1.734 4.62-3.683 5.486-5.212-.844-.939-5-7.474-8.011-12.3-2.628-4.215-5.475-4.423-6.735-4.206z" class="cls-10" data-name="Path 1255"/></g><g id="Group_989" data-name="Group 989"><path id="Path_1256" d="M2190.07 431.16c-2.385-1.6-5.812-2.3-8.152-1.294-4.377 1.868 8.3 4.867 10.771 10.02-2.723-.647-9.046-1.5-11.041-1.8a.818.818 0 00-.833.435c-2.963 5.415 3.658 6.087 9.522 6.428 1.564.09 7.935.186 8.717-1.973.487-1.351.897-5.194-8.984-11.816z" class="cls-15" data-name="Path 1256"/></g><g id="Group_991" data-name="Group 991"><g id="Group_990" data-name="Group 990"><path id="Path_1257" d="M2145.951 424.09c3.187 4.565 8.256 7.479 11.4 9.115 12.508 6.514 17.082 12.555 17.082 12.555l.91-6.658s-1.2-1.08-2.33-1.968c-2.469-1.925-12.456-8.635-12.456-8.635s-7.182-8.773-8.878-11.064c-.939-1.267-2.934-1.96-4.531-2.327a2.3 2.3 0 00-2.8 2.026 10.313 10.313 0 001.603 6.956z" class="cls-11" data-name="Path 1257"/></g></g><g id="Group_994" data-name="Group 994"><g id="Group_992" data-name="Group 992"><path id="Path_1258" d="M2249.113 501.269c-1.223.427-1.407-2.079-1.89-3.479.282.414.678.816.845.145.242-.985-.144-3.114-.871-3.719a4.429 4.429 0 011.744-.357c.646-.013 1.347 6.999.172 7.41z" class="cls-8" data-name="Path 1258"/></g><g id="Group_993" data-name="Group 993"><path id="Path_1259" d="M2248.068 497.935c-.167.671-.563.269-.845-.145-.3-.871-.518-1.6-.6-1.766a1.023 1.023 0 00-.6-.525l-.11-.443s1.135-.768 1.285-.84c.726.605 1.112 2.734.87 3.719z" class="cls-5" data-name="Path 1259"/></g></g><g id="Group_997" data-name="Group 997"><g id="Group_995" data-name="Group 995"><path id="Path_1260" d="M2263.779 493.6c-.022-.76-3.318-1.921-4.411-1.952.379.145.986.507.626.877a2.439 2.439 0 01-2.668.056 6.943 6.943 0 00.5 1.8c.254.626 6.01 1.003 5.953-.781z" class="cls-8" data-name="Path 1260"/></g><g id="Group_996" data-name="Group 996"><path id="Path_1261" d="M2260.954 492.822c.361-.369-1.03-.983-1.41-1.13a6.969 6.969 0 00-1.3-.224 1.06 1.06 0 01-.588-.42l-.511.12a1.228 1.228 0 01.191.957 1.817 1.817 0 00-.012.459c.69.516 3.104.779 3.63.238z" class="cls-5" data-name="Path 1261"/></g></g><g id="Group_998" data-name="Group 998"><path id="Path_1262" d="M2195.742 444.151a36.154 36.154 0 0110.823 3.006c5.893 2.74 51.637 43.776 51.637 43.776l-1.382.541-52.7-26.565 8.169 17.7 33.434 11.918a1.319 1.319 0 01.864 1.057.717.717 0 01-.754.822c-5.627-.334-36.4-2.287-39.2-5.048-24.483-24.12-20.512-33.288-22.232-35.69 1.906-.729 10.011-7.78 11.341-11.517z" class="cls-8" data-name="Path 1262"/></g><g id="Group_1000" data-name="Group 1000"><path id="Path_1264" d="M2146.23 415.767a11.75 11.75 0 00-1.425-2.6c-.594-.623-1.367-.934-2.412.519-.57.788.4 2.236 1.078 1.424.263-.31 1.541 2.337 2.759.657z" class="cls-5" data-name="Path 1264"/></g><g id="Group_1001" data-name="Group 1001"><path id="Path_1265" d="M2174.566 434.1c-.223 1.556 1.668 2.783 3.815 2.978.033 0 0 .1.035.113a6.293 6.293 0 01-7.119-1.371s-1.072-.531 2.32-4.121l1.344 1.576s-.252-.147-.395.825z" class="cls-6" data-name="Path 1265"/></g><g id="Group_1002" data-name="Group 1002"><path id="Path_1266" d="M2178.069 437.176c-.2.134.035.281.5-.107 2.346-1.941.9-3.546 2.643-6.488 3.725-6.267 16.657-5.184 15.42-5.328-15.21-1.773-22.935 5.727-22.935 5.727l1.021 1.834a2.293 2.293 0 013.051.329c.909.945.3 4.033.3 4.033z" class="cls-6" data-name="Path 1266"/></g><g id="Group_1005" data-name="Group 1005"><g id="Group_1003" data-name="Group 1003"><path id="Path_1267" d="M2174.025 430.609a28.894 28.894 0 012.91 3.485c.106.491-.159 1.438-1.132.9s-2.755-3.655-2.755-3.655z" class="cls-5" data-name="Path 1267"/></g><g id="Group_1004" data-name="Group 1004"><path id="Path_1268" d="M2176.016 432.831a1.406 1.406 0 01-1.24 1.126 22.927 22.927 0 01-1.246-1.821l1.132-.838c.398.436.912 1.01 1.354 1.533z" class="cls-12" data-name="Path 1268"/></g></g><g id="Group_1006" data-name="Group 1006"><path id="Path_1269" d="M2171.286 431.334a8.226 8.226 0 003.121-.816c1.1-.689 2.672-1.936 2.357-3.746-.39-2.237-2.8-2.81-3.52-3.447-.908-.8-.526-1.449-1.1-1.689-1.509-.629-3.35 3.025-3.644 4.787s.3 4.518 2.786 4.911z" class="cls-13" data-name="Path 1269"/></g><g id="Group_1007" data-name="Group 1007"><path id="Path_1270" d="M2170.16 431.534a11.12 11.12 0 01-.614-3.1c.258-1.85 4.236-1.772 4.9-1.479.725.321.9 1.26 1.039 1.953a5.119 5.119 0 01-.171 2.645 3.276 3.276 0 01-1.975 1.363c-1.921.295-2.551-.106-3.179-1.382z" class="cls-5" data-name="Path 1270"/></g><g id="Group_1008" data-name="Group 1008"><path id="Path_1271" d="M2173.244 423.325a2.265 2.265 0 01-.863-1.179c-.087-.222-.186-.331-.393-.352-.047-.006-.093-.016-.138-.025s-.1.014-.144.02a.77.77 0 00-.279.089 2.96 2.96 0 00-.96.893 7.867 7.867 0 00-.741 1.179 10.3 10.3 0 00-1.015 2.6 6.185 6.185 0 00.123 2.8 4.868 4.868 0 01-.573-2.871 8.354 8.354 0 01.95-2.812 7.852 7.852 0 01.825-1.248 3.164 3.164 0 011.214-.967 1.3 1.3 0 01.416-.09c.074 0 .147-.006.22 0l.21.062a.726.726 0 01.382.241.982.982 0 01.174.387 3.019 3.019 0 00.2.676 2.794 2.794 0 00.392.597z" class="cls-14" data-name="Path 1271"/></g><g id="Group_1010" data-name="Group 1010"><g id="Group_1009" data-name="Group 1009"><path id="Path_1272" d="M2177.565 440.148c-.085-.018-.387-.077-.7-.171-.372-.111 1.315-1.093 2.158-.907s2.581 2.06 2.581 2.06c-.7 1.957-2.7-.08-3.078-.239s-1.785-.076-1.721-.433c.052-.314.628-.311.76-.31z" class="cls-5" data-name="Path 1272"/></g></g><g id="Group_1011" data-name="Group 1011"><path id="Path_1273" d="M2195.742 444.151a36.154 36.154 0 0110.823 3.006c5.893 2.74 51.637 43.776 51.637 43.776l-.767.3s-27.473-20.209-37.075-26.281c-18.827-11.906-30.45-13.559-30.45-13.559s5.133-5.277 5.832-7.242z" class="cls-4" data-name="Path 1273"/></g></g><g id="illustrasi-hero-4" data-name="illustrasi-hero"><g id="Group_1013" data-name="Group 1013"><path id="Path_1274" d="M1869.021 455.634s3.286-5.417.529-6.705c0 0 1.454-3.273-3.133-4.455s-6.9.806-6.9.806-4.06-5.1-7.694-3.626-4.109 3.938-4.109 3.938-3.6-1.3-4.548 1.34 1.779 4.952 1.779 4.952z" class="cls-13" data-name="Path 1274"/></g><g id="Group_1014" data-name="Group 1014"><path id="Path_1275" d="M1862.309 450.5a21.865 21.865 0 00-23.878 1.27c-11.91 8.351-20.488 15.413-33.893 9.819a.159.159 0 00-.169.266 16.83 16.83 0 015.926 9.922c1.309 7.288 2.087 11.069 9.271 14.758s8.645 4.132 7.915 9.758c0 0 11.5 1.961 21.1-16.614s13.728-29.179 13.728-29.179z" class="cls-8" data-name="Path 1275"/></g><g id="Group_1015" data-name="Group 1015"><path id="Path_1276" d="M1859.271 451.569c.005.026.048.016.074.025a30.656 30.656 0 018.808 4.466l.008.006c.211.176-1.032 3.58-1.032 3.58-1.905 4.23-6.53 8.45-9.357 10.549a1.284 1.284 0 00-.357.319c-1.5-.279-8.216-4.407-9.7-6.978.624-.71 3.693-5.634 5.911-9.266 1.934-3.176 4.997-6.042 5.645-2.701z" class="cls-10" data-name="Path 1276"/></g><g id="Group_1016" data-name="Group 1016"><path id="Path_1277" d="M1859.271 451.569c.005.026.048.016.074.025 1.09.36 3.254 1.259 3.254 1.259a39.378 39.378 0 00-7.726 6.965 18.813 18.813 0 00-3.2 7.454s-3.328-2.636-3.965-3.736c.624-.71 3.693-5.634 5.911-9.266 1.941-3.176 5.004-6.042 5.652-2.701z" class="cls-15" data-name="Path 1277"/></g><g id="Group_1017" data-name="Group 1017"><path id="Path_1278" d="M1848.885 461.926c-.127.1-3.55 1.2-7.733 2.575-4.624 1.518-38.4 32.979-38.4 32.979l.369.38 39.631-20.331-5.992 13.313-26.21 9.886.84.418s27.381-1.5 29.67-3.793c18.164-18.234 15.125-25.072 16.4-26.882-1.433-.535-7.555-5.755-8.575-8.545z" class="cls-5" data-name="Path 1278"/></g><g id="Group_1020" data-name="Group 1020"><g id="Group_1019" data-name="Group 1019"><path id="Path_1280" d="M1848.865 461.878c1.023 2.788 7.162 8.058 8.595 8.593-1.078 1.533.88 7.573-10.582 20.623a34.417 34.417 0 01-8.058-4.817 41.551 41.551 0 01-4.384-3.943 40.774 40.774 0 01-6.382-8.641l-.668-1.057s12.136-10.815 21.479-10.758z" class="cls-6" data-name="Path 1280"/></g></g><g id="Group_1021" data-name="Group 1021"><path id="Path_1281" d="M1869.021 455.634a13.277 13.277 0 001.551-3.394 4.706 4.706 0 00.163-1.894 2.146 2.146 0 00-.354-.919 2.018 2.018 0 00-.763-.646l.078.213a3.21 3.21 0 00.206-1.747 2.89 2.89 0 00-.8-1.571 4.36 4.36 0 00-1.441-.978l-.4-.173-.411-.128-.412-.126-.415-.1a10.061 10.061 0 00-3.4-.216 7.354 7.354 0 00-1.68.379 5.323 5.323 0 00-1.544.808l.262.024a14.224 14.224 0 00-1.614-1.623 12.147 12.147 0 00-1.853-1.332 6.517 6.517 0 00-2.135-.8 3.842 3.842 0 00-2.234.245 3.935 3.935 0 012.209-.114 6.741 6.741 0 012.04.874 13.986 13.986 0 013.3 2.979l.114.138.147-.115a5.112 5.112 0 011.43-.721 7.08 7.08 0 011.6-.344 10.41 10.41 0 013.27.228l.4.088.392.116.4.12.373.16a3.951 3.951 0 011.331.875 2.758 2.758 0 01.569 2.923l-.056.156.135.057a1.709 1.709 0 01.995 1.318 4.552 4.552 0 01-.1 1.8 11.106 11.106 0 01-.562 1.761 18.014 18.014 0 01-.791 1.679z" data-name="Path 1281" fill="#fc8077"/></g><g id="Group_1023" data-name="Group 1023"><g id="Group_1022" data-name="Group 1022"><path id="Path_1282" d="M1886.027 446.551c-2.353 3.439-6.13 5.66-8.47 6.906-9.321 4.968-12.7 9.522-12.7 9.522l-.727-4.98s.887-.815 1.73-1.488c1.834-1.459 9.266-6.554 9.266-6.554s5.315-6.623 6.57-8.348a6.006 6.006 0 013.377-1.775 1.723 1.723 0 012.113 1.495 7.734 7.734 0 01-1.159 5.222z" class="cls-10" data-name="Path 1282"/></g></g><g id="Group_1026" data-name="Group 1026"><g id="Group_1024" data-name="Group 1024"><path id="Path_1283" d="M1808.905 505.526c.524-.24 1.038-1.568 1.393-2.62-.21.312-.506.619-.634.116a3.69 3.69 0 01.626-2.793 3.362 3.362 0 00-1.308-.251c-.482-.008-.924 5.939-.077 5.548z" class="cls-8" data-name="Path 1283"/></g><g id="Group_1025" data-name="Group 1025"><path id="Path_1284" d="M1809.664 503.022c.128.5.424.2.634-.116.218-.653.375-1.2.431-1.324a.778.778 0 01.45-.4l.08-.332s-.856-.566-.969-.622a3.69 3.69 0 00-.626 2.794z" class="cls-5" data-name="Path 1284"/></g></g><g id="Group_1029" data-name="Group 1029"><g id="Group_1027" data-name="Group 1027"><path id="Path_1285" d="M1798.283 499.436c.013-.567 2.472-1.461 3.292-1.493-.285.112-.737.389-.464.662a1.83 1.83 0 002 .023 5.252 5.252 0 01-.36 1.348c-.188.472-4.495.796-4.468-.54z" class="cls-8" data-name="Path 1285"/></g><g id="Group_1028" data-name="Group 1028"><path id="Path_1286" d="M1800.4 498.833c-.272-.273.763-.746 1.047-.855a4.823 4.823 0 01.971-.178.791.791 0 00.437-.322l.383.088a.92.92 0 00-.135.72 1.4 1.4 0 01.012.342c-.515.389-2.321.607-2.715.205z" class="cls-5" data-name="Path 1286"/></g></g><g id="Group_1031" data-name="Group 1031"><path id="Path_1288" d="M1886.367 441s1.642-.985 1.911-1.569-.187-1.974-.327-1.72a5.325 5.325 0 00-.24.506s.151-.524-.1-.627-.412.94-.587 1.2-1.981 1.396-.657 2.21z" class="cls-5" data-name="Path 1288"/></g><g id="Group_1032" data-name="Group 1032"><path id="Path_1289" d="M1879.255 434.821a7.076 7.076 0 011.221-2.152c.529-.363 1.976-.153 1.749.026a5.08 5.08 0 01-.457.324s.488-.238.632-.006-.854.567-1.075.781-1.038 2.191-2.07 1.027z" class="cls-5" data-name="Path 1289"/></g><g id="Group_1033" data-name="Group 1033"><path id="Path_1290" d="M1864.67 454.252c-.02.911-1.273 1.5-2.836 2.255-.023.012 0 .075-.026.087a4.715 4.715 0 005.322-1.077s.8-.407-1.766-3.069l-.995 1.188s.317-.121.301.616z" class="cls-8" data-name="Path 1290"/></g><g id="Group_1034" data-name="Group 1034"><path id="Path_1291" d="M1861.816 456.6a.737.737 0 01-.125-.1 4.121 4.121 0 01-1.074-4.394s.606-1.554 1.524-1.726c.826-.154 2.882 1.726 2.882 1.726l-1.35 1.334s-.371-.421-.974.353a8.033 8.033 0 00-.883 2.807z" class="cls-8" data-name="Path 1291"/></g><g id="Group_1037" data-name="Group 1037"><g id="Group_1035" data-name="Group 1035"><path id="Path_1292" d="M1865.05 451.631a21.775 21.775 0 00-2.154 2.628c-.075.37.128 1.079.855.664a11.324 11.324 0 002.035-2.757z" class="cls-5" data-name="Path 1292"/></g><g id="Group_1036" data-name="Group 1036"><path id="Path_1293" d="M1863.575 453.309a1.056 1.056 0 00.936.835 16.361 16.361 0 00.919-1.373l-.852-.621c-.294.33-.678.764-1.003 1.159z" class="cls-12" data-name="Path 1293"/></g></g><g id="Group_1038" data-name="Group 1038"><path id="Path_1294" d="M1867.951 452.3a8.335 8.335 0 00.439-2.321c-.207-1.385-3.184-1.3-3.677-1.076-.539.246-.662.951-.765 1.47a3.843 3.843 0 00.15 1.981 2.427 2.427 0 001.488 1.006c1.436.2 1.904-.103 2.365-1.06z" class="cls-5" data-name="Path 1294"/></g><g id="Group_1042" data-name="Group 1042"><g id="Group_1039" data-name="Group 1039"><path id="Path_1295" d="M1873.592 433.822c-3.767 1.787-6.265 5.415-8.147 7.283-9.065 8.979-11.357 12.735-11.357 12.735l4.764-.183s.948-.747 1.743-1.474c1.728-1.584 7.925-8.125 7.925-8.125s7.374-4.211 9.275-5.183a5.99 5.99 0 002.281-3.056 1.721 1.721 0 00-1.145-2.319 7.747 7.747 0 00-5.339.322z" class="cls-15" data-name="Path 1295"/></g><g id="Group_1041" data-name="Group 1041"><g id="Group_1040" data-name="Group 1040"><path id="Path_1296" d="M1853.97 453.77c.022-.04 2.4-3.874 11.378-12.763.459-.454.965-1.027 1.5-1.635 1.7-1.922 3.816-4.315 6.683-5.674a7.9 7.9 0 015.434-.331 1.868 1.868 0 011.191.985 1.846 1.846 0 01.047 1.522 6.163 6.163 0 01-2.348 3.126c-1.832.933-8.846 4.935-9.251 5.166-.33.352-6.245 6.585-7.918 8.118-.791.724-1.74 1.475-1.749 1.485l-.037.026-5.067.194zm6.532-1.69c1.7-1.561 7.855-8.052 7.918-8.117l.032-.025c.074-.044 7.4-4.224 9.279-5.184a5.907 5.907 0 002.217-2.987 1.563 1.563 0 00-.039-1.294 1.59 1.59 0 00-1.015-.841 7.623 7.623 0 00-5.242.315c-2.816 1.335-4.912 3.705-6.6 5.61-.54.608-1.05 1.184-1.514 1.645-7.748 7.675-10.563 11.566-11.191 12.49l4.452-.17a36.543 36.543 0 001.701-1.442z" class="cls-15" data-name="Path 1296"/></g></g></g><g id="Group_1043" data-name="Group 1043"><path id="Path_1297" d="M1863.676 449.794s.414 1.059 2.36-.45a1.615 1.615 0 011.781-.145s-.259-2.1-1.928-1.505a3.835 3.835 0 00-2.213 2.1z" class="cls-13" data-name="Path 1297"/></g><g id="Group_1046" data-name="Group 1046"><g id="Group_1045" data-name="Group 1045"><path id="Path_1299" d="M1848.865 461.878c.418 1.136 3.137 4.159 3.137 4.159s-6.425 2.036-10.618 6.283-5.655 11.3-5.655 11.3-.861-.835-1.293-1.282a40.774 40.774 0 01-6.382-8.641l-.668-1.057s12.136-10.819 21.479-10.762z" class="cls-7" data-name="Path 1299"/></g></g></g><g id="illustrasi-beki"><g id="Group_1054" data-name="Group 1054"><g id="Group_1052" data-name="Group 1052"><path id="Path_1301" d="M2015.283 660.9c.3.787 2.2 5.618.979 6.266s-1.408-.832-2.832-.526a3.063 3.063 0 00-1.235.8 1.188 1.188 0 01-1.933.017c-.541-.722-.739-1.029-1.742-.772s-1.443.019-1.516-.472 4.005-4.613 5.858-5.705c.97-.572 2.122-.408 2.421.392z" class="cls-21" data-name="Path 1301"/><path id="Path_1302" d="M2012.846 664.642a2.945 2.945 0 01-3.074-1.584 16.179 16.179 0 01-1.354-9.83 2.918 2.918 0 013.446-2.412 3.127 3.127 0 012.341 3.641 10.046 10.046 0 00.718 5.674 3.137 3.137 0 01-1.148 4.179 2.826 2.826 0 01-.929.332z" class="cls-21" data-name="Path 1302"/></g><g id="Group_1053" data-name="Group 1053"><path id="Path_1303" d="M2030.164 659c-.089.836-.716 5.989.625 6.311s1.154-1.158 2.61-1.218a3.03 3.03 0 011.4.467 1.192 1.192 0 001.877-.471c.341-.833.456-1.181 1.491-1.184s1.4-.344 1.349-.837-5.033-3.461-7.1-4.051c-1.088-.311-2.16.143-2.252.983z" class="cls-21" data-name="Path 1303"/><path id="Path_1304" d="M2033.463 662.013a2.942 2.942 0 002.579-2.3 16.172 16.172 0 00-1.155-9.855 2.916 2.916 0 00-3.942-1.468 3.124 3.124 0 00-1.351 4.11 10.031 10.031 0 01.726 5.672 3.139 3.139 0 002.16 3.758 2.781 2.781 0 00.983.083z" class="cls-21" data-name="Path 1304"/></g><path id="Path_1305" d="M2048.285 627.078a84.082 84.082 0 00-1.5-6.294 70.625 70.625 0 00-2.556-7.511s-.106-.316-.181-.471v-.009c-4.106-8.4-10.243-15.66-19.117-18.15a18.016 18.016 0 00-5.377-.548c.092-1.677-.26-3.438-.729-2.392-.741 1.651-3.863 2.725-3.863 2.725 1.213-2.674-1.035-5.3-1.035-5.3-1.486 4.7-7.5 6.792-7.5 6.792h.005c-.544.2-1.082.409-1.61.646-.42.164-.836.334-1.246.521-8.074 3.668-11.5 13.521-12.994 22.01a67.316 67.316 0 00-.689 15.416c-.13 2.481-.371 10.6 1.651 16.474a10.678 10.678 0 001.316 2.895 7.408 7.408 0 003.167 3.036c.137.062.271.121.4.176 2.238 1.177 5.388 1.82 9.815 1.4 5.046-.477 10.613-1.118 15.953-1.786l.186-.024c5.1-.637 13.961-1.962 13.961-1.962l2.131-.336c4.391-.7 7.279-2.118 9.15-3.819.113-.086.229-.176.344-.27a7.406 7.406 0 002.3-3.735 10.678 10.678 0 00.549-3.132c.484-6.188-1.782-13.985-2.531-16.352z" data-name="Path 1305" fill="#fcc324"/><path id="Path_1306" d="M2038.055 646.324a24.322 24.322 0 00-4.489-8.42c-4.783-5.4-12.005-6.2-18.412-4.2a14.212 14.212 0 00-6.535 4.645 17.949 17.949 0 00-3.2 7.18c-1.082 4.2-.784 8.772-.672 13.108a32.7 32.7 0 001.024-.078c5.045-.477 10.613-1.119 15.952-1.788l.186-.025c5.1-.638 13.962-1.962 13.962-1.962.718-.11 1.43-.224 2.13-.335s1.33-.24 1.945-.384a52.57 52.57 0 00-1.891-7.741z" data-name="Path 1306" fill="#ffd45b"/><path id="Path_1307" d="M2004.885 602.464a5.731 5.731 0 012.6-.8.979.979 0 00-.247-1.936 7.733 7.733 0 00-3.5 1.18c-.994.692.154 2.24 1.147 1.556z" class="cls-24" data-name="Path 1307"/><path id="Path_1308" d="M2024.053 599.934a7.738 7.738 0 012.754.269c1.17.3 1.409-1.632.252-1.928a9.118 9.118 0 00-3.253-.276c-1.193.129-.944 2.062.247 1.935z" class="cls-24" data-name="Path 1308"/><path id="Path_1309" d="M2013.752 610.156a7.075 7.075 0 11-7.946-6.461 7.246 7.246 0 017.946 6.461z" class="cls-11" data-name="Path 1309"/><path id="Path_1310" d="M2011.967 610.385a5.058 5.058 0 11-5.682-4.62 5.179 5.179 0 015.682 4.62z" class="cls-25" data-name="Path 1310"/><path id="Path_1311" d="M2033.4 607.651a7.074 7.074 0 11-7.947-6.46 7.247 7.247 0 017.947 6.46z" class="cls-11" data-name="Path 1311"/><path id="Path_1312" d="M2031.516 607.892a5.057 5.057 0 11-5.682-4.618 5.179 5.179 0 015.682 4.618z" class="cls-25" data-name="Path 1312"/><path id="Path_1313" d="M2026.254 624.02a6.728 6.728 0 00-2.584-6.654 4.733 4.733 0 00-1.49-.84 3.594 3.594 0 00-.337-.8 4.652 4.652 0 00-2.911-2.079 4.417 4.417 0 00-5.432 3.843 3.309 3.309 0 00-.015.6 8 8 0 00-2.448 5.94 7.124 7.124 0 004.717 6.21 7.473 7.473 0 007.194-1.193 8.251 8.251 0 003.306-5.027z" class="cls-26" data-name="Path 1313"/><path id="Path_1314" d="M2016.438 615.713a.617.617 0 00-.819.32 7.625 7.625 0 00-.538 1.16.68.68 0 00.315.862.607.607 0 00.819-.321 7.69 7.69 0 01.539-1.16.672.672 0 00-.316-.861z" class="cls-25" data-name="Path 1314"/><path id="Path_1315" d="M2020.349 616.315a5.207 5.207 0 00-.6-.837.615.615 0 00-.868-.143.668.668 0 00-.127.907 5.17 5.17 0 01.6.838.606.606 0 00.868.143.683.683 0 00.127-.908z" class="cls-25" data-name="Path 1315"/><path id="Path_1316" d="M1990.233 643.636a10.607 10.607 0 01-3.45-9.246c.544-6.215 6.9-5.088 9.851-5s5.022.629 5.775-.8 1.731-1.622 2.064-.063-.141 1.522-.329 1.879c0 0 .946-1.222 1.118.125s-.258 1.636-.258 1.636 1.316-.669.951.915-5.217 12.788-15.722 10.554z" class="cls-27" data-name="Path 1316"/><path id="Path_1317" d="M2049.773 636.046a10.6 10.6 0 001.02-9.816c-2.085-5.879-7.955-3.193-10.789-2.365s-4.7 1.869-5.792.671-2.083-1.137-2.013.457.517 1.437.789 1.736c0 0-1.222-.945-1.05.4s.66 1.518.66 1.518-1.444-.317-.692 1.123 8.258 11.075 17.867 6.276z" class="cls-27" data-name="Path 1317"/><path id="Path_1318" d="M2019.8 619.624a4.08 4.08 0 102.715 5.09 4.117 4.117 0 00-2.715-5.09z" class="cls-24" data-name="Path 1318"/><path id="Path_1319" d="M2019.552 618.52a2.541 2.541 0 01-3.008.633c-.767-.355-1.485.764-.71 1.122a4.189 4.189 0 002.638.343 3.391 3.391 0 002.2-1.387c.535-.672-.595-1.375-1.12-.711z" class="cls-26" data-name="Path 1319"/></g><g id="Path_1320" class="cls-28" data-name="Path 1320"><path d="M2050.793 626.23a4.961 4.961 0 00-3.5-3.526 73.174 73.174 0 00-.508-1.92 70.625 70.625 0 00-2.556-7.511s-.106-.316-.181-.471v-.009c-4.106-8.4-10.243-15.66-19.117-18.15a18.016 18.016 0 00-5.377-.548c.092-1.677-.26-3.438-.729-2.392-.741 1.651-3.863 2.725-3.863 2.725 1.213-2.674-1.035-5.3-1.035-5.3-1.486 4.7-7.5 6.792-7.5 6.792h.005c-.544.2-1.082.409-1.61.646-.42.164-.836.334-1.246.521-8.074 3.668-11.5 13.521-12.994 22.01a60.5 60.5 0 00-.83 10.768 4.9 4.9 0 00-2.967 4.518 10.757 10.757 0 003.278 9.1 33.3 33.3 0 001.481 7.5 10.678 10.678 0 001.316 2.895 7.408 7.408 0 003.167 3.036c.137.062.271.121.4.176a16.152 16.152 0 008.318 1.5v.037a32.7 32.7 0 001.024-.078c.839-.081 1.7-.165 2.566-.253a15.6 15.6 0 001.43 4.736c-1.483 1.412-2.8 2.884-2.762 3.165.073.491.514.729 1.516.472s1.2.05 1.742.772a1.188 1.188 0 001.933-.017 3.063 3.063 0 011.235-.8c1.424-.306 1.617 1.174 2.832.526s-.683-5.479-.979-6.266a1.029 1.029 0 00-.152-.27 3.075 3.075 0 00-.208-.5 9.741 9.741 0 01-.724-2.454c2.507-.286 5.039-.59 7.523-.9l.186-.025c.253-.031.518-.066.787-.1 2.256-.286 5.159-.691 7.709-1.056a9.63 9.63 0 01-.084 2.571 3.18 3.18 0 00-.076.534 1.028 1.028 0 00-.08.3c-.089.836-.716 5.989.625 6.311s1.154-1.158 2.61-1.218a3.03 3.03 0 011.4.467 1.192 1.192 0 001.877-.471c.341-.833.456-1.181 1.491-1.184s1.4-.344 1.349-.837c-.03-.282-1.676-1.376-3.467-2.37a15.636 15.636 0 00.195-4.952l.1-.015 2.131-.336c4.391-.7 7.279-2.118 9.15-3.819.113-.086.229-.176.344-.27a7.406 7.406 0 002.3-3.735 10.678 10.678 0 00.549-3.132 34.358 34.358 0 00-.543-8.194 10.934 10.934 0 00.519-8.999z" class="cls-32"/><path d="M2013.926 589.132c-1.486 4.696-7.501 6.792-7.501 6.792l.005.003c-.544.196-1.082.409-1.61.646-.42.164-.836.334-1.246.521-8.074 3.668-11.504 13.521-12.994 22.01-.622 3.543-.848 7.148-.83 10.768-1.542.656-2.743 1.97-2.967 4.518-.474 5.434 2.52 8.434 3.278 9.102.241 2.528.684 5.189 1.481 7.502a10.68 10.68 0 001.316 2.895c.824 1.364 1.861 2.436 3.167 3.036.137.062.271.121.402.176 1.77.932 4.116 1.527 7.21 1.527.36 0 .728-.008 1.108-.024l.001.037a32.7 32.7 0 001.024-.078 523.83 523.83 0 002.566-.253c.375 2.62 1.266 4.422 1.43 4.736-1.483 1.412-2.803 2.884-2.762 3.165.053.354.297.577.805.577.196 0 .432-.033.711-.105.236-.06.427-.09.589-.09.526 0 .74.31 1.153.862.254.34.574.49.9.49.364 0 .736-.187 1.033-.507a3.063 3.063 0 011.235-.801 1.79 1.79 0 01.377-.042c.872 0 1.216.734 1.877.734.167 0 .356-.047.578-.166 1.217-.648-.683-5.479-.979-6.266a1.03 1.03 0 00-.152-.27 3.075 3.075 0 00-.208-.496c-.008-.016-.483-.996-.724-2.454 2.507-.286 5.039-.59 7.523-.902v.002l.186-.025c.253-.031.518-.066.787-.1 2.256-.286 5.159-.691 7.71-1.056.136 1.479-.081 2.554-.085 2.571a3.18 3.18 0 00-.076.534 1.028 1.028 0 00-.08.298c-.089.836-.716 5.989.625 6.311.132.032.25.047.355.047.965 0 .942-1.21 2.255-1.265 0 0 .7.021 1.396.467.27.172.564.265.84.265.434 0 .828-.228 1.037-.736.34-.833.456-1.181 1.491-1.184 1.035-.003 1.402-.344 1.349-.837-.03-.282-1.676-1.376-3.467-2.37.08-.344.49-2.317.195-4.952.067-.011.102-.015.102-.015.719-.113 1.43-.224 2.131-.336 4.391-.705 7.279-2.118 9.15-3.819.113-.086.23-.176.344-.27 1.114-.909 1.849-2.207 2.304-3.735.365-1.072.52-2.14.55-3.132.203-2.623-.087-5.531-.544-8.194.782-1.434 2.045-4.699.516-9.014-.767-2.161-2.045-3.163-3.496-3.526a72.841 72.841 0 00-.508-1.92c-.207-1.333-1.973-5.995-2.556-7.511 0 0-.106-.316-.181-.471l-.004-.009h-.001c-4.106-8.402-10.243-15.66-19.117-18.15-1.497-.42-3.045-.559-4.602-.559-.258 0-.516.004-.775.011.073-1.327-.132-2.706-.454-2.706-.084 0-.177.096-.275.314-.741 1.651-3.863 2.725-3.863 2.725 1.213-2.674-1.035-5.296-1.035-5.296m0-3.987c1.15 0 2.26.5 3.027 1.392.094.11.416.5.792 1.099a4.262 4.262 0 011.354-.234 4.16 4.16 0 013.005 1.302c.45.476.749 1.01.95 1.536 1.046.116 2.024.304 2.954.565 4.838 1.357 9.245 4.01 13.096 7.886 3.231 3.25 6.086 7.38 8.486 12.273a8.445 8.445 0 01.391.95c2.046 5.323 2.54 7.187 2.689 7.928.49.302.95.655 1.375 1.058 1.087 1.031 1.93 2.376 2.505 3.996.887 2.503 1.155 5.024.797 7.493a14.536 14.536 0 01-.94 3.439c.43 2.918.563 5.545.395 7.826a14.665 14.665 0 01-.732 4.127c-.72 2.372-1.924 4.26-3.583 5.613-.113.092-.223.179-.316.25-2.31 2.05-5.427 3.51-9.282 4.35.973.668 2.383 1.748 2.587 3.647.143 1.33-.261 2.602-1.137 3.58-.677.756-1.548 1.258-2.602 1.5-.35.484-.779.9-1.27 1.232a5.043 5.043 0 01-2.831.858 5.402 5.402 0 01-1.756-.297 4.848 4.848 0 01-2.736.83 5.5 5.5 0 01-1.286-.158c-.835-.2-2.858-.974-3.589-3.82-.2-.774-.302-1.688-.314-2.792a27.72 27.72 0 01.086-2.342 329.967 329.967 0 01-3.767.493l-.033.005a690.576 690.576 0 01-2.658.327c.227.662.476 1.453.672 2.244.265 1.072.395 1.982.396 2.782.007 2.938-1.757 4.195-2.515 4.599a5.175 5.175 0 01-2.452.634c-.62 0-1.162-.118-1.617-.277a5.3 5.3 0 01-2.905.893 5.016 5.016 0 01-3.209-1.16 6.021 6.021 0 01-.144.002c-2.448 0-4.4-1.635-4.748-3.977l-.002-.01c-.245-1.68.614-2.894.896-3.292.184-.26.41-.547.686-.869a3.979 3.979 0 01-.305-.02c-.235.006-.469.009-.698.009-3.44 0-6.437-.64-8.912-1.905a21.733 21.733 0 01-.345-.153l-.02-.01c-1.944-.893-3.585-2.418-4.877-4.534a14.655 14.655 0 01-1.743-3.812c-.67-1.974-1.172-4.298-1.496-6.926-1.634-1.911-3.92-5.647-3.433-11.231.232-2.645 1.264-4.816 2.97-6.33.073-3.332.361-6.392.872-9.3.952-5.425 2.436-10.119 4.41-13.95 2.709-5.254 6.362-8.954 10.857-10.998a27 27 0 011.359-.571c.49-.218.998-.423 1.542-.625a3.99 3.99 0 01.283-.108c1.093-.398 4.317-2.01 5.02-4.233a3.987 3.987 0 013.801-2.784z" class="cls-33"/></g></g><g id="illustrasi-maskot"><g id="Group_1065" data-name="Group 1065"><g id="Group_1062" data-name="Group 1062"><g id="Group_1056" data-name="Group 1056"><path id="Path_1321" d="M2140.141 578.705c-4.267 2.2-.919 5.388 1.639 7.445s6.288 4.613 7.622 0c1.868-6.454 2.03-9.7.815-10.495-1.19-.773-4.871.361-10.076 3.05z" class="cls-26" data-name="Path 1321"/></g><g id="Group_1057" data-name="Group 1057"><path id="Path_1322" d="M2147.337 590.535c-4.684-1.049-4.162 3.543-3.519 6.763s1.862 7.574 5.844 4.893c5.574-3.751 7.785-6.141 7.36-7.527-.414-1.355-3.965-2.849-9.685-4.129z" class="cls-26" data-name="Path 1322"/></g><g id="Group_1058" data-name="Group 1058"><path id="Path_1323" d="M2149.556 602.1c-4.574-1.454-4.455 3.166-4.095 6.43s1.193 7.705 5.393 5.383c5.881-3.252 8.293-5.438 7.991-6.857-.296-1.383-3.704-3.179-9.289-4.956z" class="cls-26" data-name="Path 1323"/></g><path id="Path_1324" d="M2165.663 632.385c-2.519.48-4.508 1.665-7.141 1.588-3.193-.094-6.947-1.267-8.6-4.21a2.154 2.154 0 00-.7-.757c0-.044.01-.087.014-.131.126-1.264 1-7.85 1.242-10.215 3.106-30.789-1.764-39.669-20.225-41.912-12.028-1.462-26.646 5.387-29.752 37.43-.1 1.09-.185 2.141-.242 3.16a75.806 75.806 0 00-1 7.057 43.331 43.331 0 00.015 9.456c-.589 3.313.776 6.979 1.228 10.261a31.477 31.477 0 003.737 11.66c1.206 2.093 3.743 3.543 6.213 2.234 2.757-1.46 3.282-4.505 3.623-7.182a42.059 42.059 0 0014.164 1.98c.741 3.237 2.71 8.555 7.175 8.417a3.9 3.9 0 002.255-.737 32.619 32.619 0 002.507-2.384.1.1 0 01.011-.026c1.816-2.043 2.809-4.725 3.872-7.114.231-.521.448-1.048.663-1.577 7.905 3.55 19.112-4.684 23.994-10.42 2.777-3.273 1.884-7.52-3.053-6.578z" class="cls-29" data-name="Path 1324"/><g id="Group_1059" data-name="Group 1059"><path id="Path_1325" d="M2128.022 603.017c-.6.917-1.457 1.421-1.907 1.123s-.33-1.28.273-2.2 1.457-1.42 1.909-1.122.328 1.282-.275 2.199z" class="cls-25" data-name="Path 1325"/><path id="Path_1326" d="M2121.62 602.238c.365 1.035 1.074 1.729 1.583 1.548s.626-1.163.262-2.2-1.076-1.728-1.586-1.548-.623 1.162-.259 2.2z" class="cls-25" data-name="Path 1326"/></g><path id="Path_1327" d="M2136.331 578.278a.77.77 0 00-.091-.531l.006-.022c-1.713-6.794-3.351-9.865-5-9.977-1.522-.1-7.943 8.859-8 9.015l-.022.069a.718.718 0 00-.329.634c0 .139.007.274.018.4a4.59 4.59 0 002.212 4.226 7.823 7.823 0 006.756.925h.012a5.472 5.472 0 004.438-4.739z" class="cls-26" data-name="Path 1327"/><path id="Path_1328" d="M2135.316 623.853c-4.628-5.816-14.763-8.225-21.621-3.95a15.348 15.348 0 00-7.1 10.228 14.755 14.755 0 00-.48 3.7c.008 4.528 1.741 8.354 6.381 11.7a17.681 17.681 0 0017.86 1.313c8.232-4.479 10.402-16.152 4.96-22.991z" data-name="Path 1328" fill="#fdd600"/><path id="Path_1329" d="M2133.176 629.426c-6.311-4.01-15.541-4.52-22.451-1.832-1.068.413-.362 2.044.7 1.629 6.274-2.438 14.926-2.033 20.673 1.617.967.611 2.046-.801 1.078-1.414z" class="cls-26" data-name="Path 1329"/><path id="Path_1330" d="M2130.565 638.114c-5.68-2.388-11.586-4.406-17.5-1.59-1.031.492-.332 2.127.7 1.632 5.477-2.611 10.893-.6 16.118 1.6a.888.888 0 00.682-1.642z" class="cls-26" data-name="Path 1330"/><g id="Group_1060" data-name="Group 1060"><path id="Path_1331" d="M2150.728 631.839c-2.126 2.1.455 3.372 2.358 4.117s4.593 1.575 4.528-1.414c-.088-4.181-.594-6.141-1.465-6.387-.849-.237-2.827 1.119-5.421 3.684z" class="cls-26" data-name="Path 1331"/></g><g id="Group_1061" data-name="Group 1061"><path id="Path_1332" d="M2161.293 633.032c-.807 2 1.266 2.1 2.736 2.052s3.49-.268 2.595-2.228c-1.254-2.741-2.148-3.9-2.793-3.809s-1.552 1.547-2.538 3.985z" class="cls-26" data-name="Path 1332"/></g><path id="Path_1333" d="M2120.954 604.738a8.508 8.508 0 013.416 1.117.966.966 0 00.86.08 13.851 13.851 0 011.83-.282c2.479-.141 4.72 1.641 3.567 3.147a4.446 4.446 0 01-2.778 1.446 7.335 7.335 0 01-3.352.3 2.257 2.257 0 01-.638-.088c-2.3-.351-4.832-1.04-5.755-2.685-.864-1.536.365-3.155 2.85-3.035z" class="cls-25" data-name="Path 1333"/></g><path id="Path_1336" d="M2111.583 606.09a1.351 1.351 0 001-2.436c-5.445-3.651-7.426-9.011-10.965-14.132-1.26-1.823-3.894-4.4-6.2-2.368-5.937 5.231-3.7 16.206-.708 22.336 1.388 2.845 3.149 6.242 6.257 7.439 2.956 1.137 6.118-2.579 7.854-4.326 2.312-2.328 3.022-4.477 2.762-6.513z" class="cls-29" data-name="Path 1336"/><path id="Path_1337" d="M2147.422 610.2a1.351 1.351 0 012.232-1.4c4.515 4.755 10.132 5.8 15.776 8.431 2.008.937 4.994 3.1 3.378 5.714-4.16 6.732-15.355 6.369-21.9 4.456-3.039-.888-6.685-2.053-8.387-4.915-1.618-2.722 1.513-6.467 2.942-8.47 1.908-2.663 3.91-3.725 5.959-3.816z" class="cls-29" data-name="Path 1337"/><path id="Path_1338" d="M2139.769 599.974c-.058.727-1.2.723-1.139-.009a5.975 5.975 0 00-1.927-4.571c-2.018-2.015-5.069-.025-5.809 2.191a.652.652 0 01-.124.214.513.513 0 01-.43.2.526.526 0 01-.341-.127c-.015-.009-.024-.02-.039-.03a.293.293 0 01-.042-.044.474.474 0 01-.121-.524c.832-2.488 3.408-4.376 6.086-3.683 2.454.635 4.07 4.05 3.886 6.383z" class="cls-25" data-name="Path 1338"/><path id="Path_1339" d="M2112.823 595.532c-.146.716.95 1.028 1.1.306a5.989 5.989 0 013.117-3.856c2.5-1.378 4.879 1.379 4.977 3.715a.59.59 0 00.06.241.542.542 0 00.72.281.3.3 0 00.045-.018.359.359 0 00.053-.03.473.473 0 00.261-.47c-.109-2.62-2.061-5.149-4.826-5.225-2.537-.07-5.035 2.764-5.507 5.056z" class="cls-25" data-name="Path 1339"/><g id="Group_1063" data-name="Group 1063"><path id="Path_1340" d="M2118.966 586.095c-.871.135-1.725.369-2.595.5a.889.889 0 00.26 1.757c.873-.135 1.724-.368 2.6-.505a.888.888 0 00-.265-1.752z" class="cls-25" data-name="Path 1340"/></g><g id="Group_1064" data-name="Group 1064"><path id="Path_1341" d="M2139.639 590.583a4.449 4.449 0 00-2.266-1.284.888.888 0 00-.988.774.91.91 0 00.773.99 2.286 2.286 0 011.083.613.9.9 0 001.247.151.886.886 0 00.151-1.244z" class="cls-25" data-name="Path 1341"/></g></g><g id="Path_1342" class="cls-28" data-name="Path 1342"><path d="M2094.795 609.5c1.283 2.632 2.893 5.734 5.586 7.131-.016.238-.034.481-.048.716-.415 2.16-.753 4.5-1 7.057a43.387 43.387 0 00.016 9.456c-.588 3.314.775 6.98 1.228 10.262a31.524 31.524 0 003.737 11.66c1.206 2.093 3.742 3.543 6.213 2.234 2.758-1.46 3.281-4.506 3.622-7.183a42.072 42.072 0 0014.167 1.98c.738 3.237 2.708 8.556 7.173 8.417a3.9 3.9 0 002.255-.737 32.332 32.332 0 002.506-2.385c0-.008.009-.017.011-.024 1.818-2.043 2.809-4.727 3.873-7.114.231-.522.448-1.048.663-1.577 7.9 3.548 19.113-4.685 24-10.42 2.648-3.114 1.967-7.1-2.353-6.677-1.114-2.329-1.928-3.32-2.526-3.239-.631.084-1.552 1.546-2.539 3.984a2.4 2.4 0 00-.168.633 9.529 9.529 0 01-2.6.308c-.3-.009-.614-.03-.925-.06-.1-2.866-.409-4.576-.922-5.327 4.892-.2 9.709-1.712 12.133-5.636 1.616-2.615-1.368-4.777-3.377-5.714-3.994-1.859-7.971-2.933-11.555-5.084 3.686-2.3 5.212-3.944 4.969-5.09-.264-1.233-2.991-2.79-7.513-4.365q-.012-.836-.04-1.634c4.37-3.109 6.11-5.157 5.731-6.4-.346-1.131-2.883-2.359-7.032-3.476a23.464 23.464 0 00-1.246-3.554 5.259 5.259 0 00.657-1.483c1.867-6.454 2.032-9.7.815-10.495-1.19-.775-4.871.359-10.077 3.048a7.417 7.417 0 00-.485.278 26.953 26.953 0 00-3.373-1.12.65.65 0 00-.041-.115.061.061 0 01.006-.023c-1.713-6.794-3.352-9.864-5-9.976-1.522-.1-7.943 8.859-8 9.014-.009.024-.015.047-.023.07a.612.612 0 00-.145.124c-6.952 1.325-13.859 6.225-18.3 17.608-1-1.662-1.995-3.364-3.156-5.043-1.26-1.822-3.893-4.4-6.2-2.368-5.946 5.239-3.705 16.211-.717 22.339zm54.515 19.385c.018-.187.054-.492.1-.883a32.248 32.248 0 005.318.6 19.946 19.946 0 00-3.442 2.777 6.572 6.572 0 01-1.285-1.611 2.163 2.163 0 00-.706-.757c.005-.038.011-.08.015-.124z" class="cls-32"/><path d="M2131.302 567.76c-1.568 0-7.916 8.86-7.972 9.014-.009.024-.015.047-.023.07a.612.612 0 00-.145.124c-6.952 1.325-13.859 6.225-18.303 17.608-1.002-1.662-1.995-3.364-3.156-5.043-.933-1.349-2.618-3.112-4.367-3.112-.613 0-1.233.216-1.832.744-5.938 5.231-3.697 16.207-.71 22.337 1.284 2.632 2.894 5.734 5.587 7.131-.016.238-.034.481-.048.716a76.718 76.718 0 00-1.001 7.057c-.35 3.61-.32 6.739.016 9.456-.588 3.314.775 6.98 1.228 10.262.562 4.06 1.617 7.983 3.737 11.66.888 1.54 2.496 2.733 4.269 2.733a4.12 4.12 0 001.944-.499c2.758-1.46 3.28-4.506 3.622-7.183 4.806 1.427 8.95 2.023 12.525 2.023.561 0 1.108-.014 1.642-.043.728 3.195 2.658 8.42 7.002 8.42l.171-.003c.935-.028 1.66-.304 2.255-.737 0 0 1.601-1.368 2.506-2.385.003-.008.01-.017.011-.024 1.818-2.043 2.81-4.727 3.873-7.114.231-.522.448-1.048.663-1.577 1.325.595 2.742.858 4.207.858 7.277 0 15.724-6.504 19.788-11.278 2.516-2.959 2.026-6.709-1.734-6.709-.198 0-.404.01-.619.032-1.072-2.241-1.866-3.244-2.458-3.244a.506.506 0 00-.068.005c-.631.084-1.552 1.546-2.539 3.984a2.404 2.404 0 00-.168.633c-.748.183-1.518.312-2.352.312a13.979 13.979 0 01-1.175-.064c-.096-2.866-.409-4.576-.922-5.327 4.892-.201 9.71-1.712 12.133-5.636 1.616-2.615-1.368-4.777-3.377-5.714-3.994-1.859-7.971-2.933-11.555-5.084 3.686-2.3 5.212-3.944 4.969-5.09-.264-1.233-2.99-2.79-7.513-4.365a76.96 76.96 0 00-.04-1.634c4.37-3.109 6.11-5.157 5.731-6.398-.346-1.131-2.883-2.359-7.032-3.476a23.464 23.464 0 00-1.246-3.554c.255-.38.479-.866.657-1.483 1.867-6.454 2.032-9.704.815-10.495-.246-.16-.6-.239-1.05-.239-1.729 0-4.898 1.154-9.027 3.287a7.367 7.367 0 00-.485.278 26.953 26.953 0 00-3.373-1.12c-.013-.038-.021-.08-.041-.115a.06.06 0 01.006-.023c-1.713-6.794-3.352-9.864-4.999-9.976h-.027m19.985 63.625a6.572 6.572 0 01-1.285-1.611 2.163 2.163 0 00-.706-.757l.014-.13c.018-.187.054-.492.1-.883 1.655.329 3.468.551 5.319.604-.901.522-2.074 1.466-3.442 2.777m-19.985-67.612c.099 0 .198.003.296.01.964.065 2.4.43 3.777 1.8.724.72 1.372 1.653 1.982 2.851.776 1.525 1.517 3.541 2.25 6.126 1.72-.849 3.285-1.531 4.663-2.033 2.004-.73 3.632-1.085 4.978-1.085 1.238 0 2.324.298 3.225.885.812.528 1.88 1.558 2.346 3.46.229.934.296 2.01.204 3.288-.145 2.037-.704 4.718-1.71 8.196-.047.161-.097.32-.15.476l.083.23c1.38.442 2.562.904 3.527 1.378 1.451.714 3.46 1.92 4.143 4.155.26.853.425 2.206-.27 3.824-.35.819-.888 1.63-1.64 2.482-.35.394-.75.803-1.208 1.23.342.174.664.348.964.522 1.5.867 3.554 2.296 4.062 4.67a.09.09 0 01.002.008c.243 1.146.086 2.352-.453 3.49a7.574 7.574 0 01-.966 1.514l.94.367c1.565.61 3.184 1.242 4.847 2.016.798.372 1.98 1.01 3.095 1.949 1.4 1.177 2.332 2.519 2.77 3.986.55 1.838.273 3.787-.779 5.489a13.759 13.759 0 01-3.078 3.485 7.188 7.188 0 011.748.704 6.571 6.571 0 012.742 2.973c.696 1.505.834 3.242.4 5.023-.37 1.517-1.153 3.01-2.264 4.315-2.535 2.978-6.034 5.974-9.602 8.22-2.116 1.334-4.225 2.387-6.268 3.131-2.426.884-4.766 1.332-6.955 1.332-.644 0-1.276-.039-1.895-.116-.91 2.094-1.966 4.401-3.701 6.42a3.944 3.944 0 01-.18.216c-1.056 1.187-2.71 2.608-2.894 2.766-.08.067-.16.131-.244.192-1.297.944-2.805 1.449-4.482 1.499a8.901 8.901 0 01-5.338-1.54c-1.188-.798-2.247-1.899-3.144-3.27-.754-1.152-1.333-2.4-1.773-3.586-2.583-.093-5.317-.456-8.173-1.085-.074.215-.154.43-.241.644-.943 2.327-2.473 4.063-4.547 5.161a8.066 8.066 0 01-3.81.962c-3.082 0-6.041-1.812-7.722-4.729-2.17-3.765-3.516-7.929-4.232-13.103-.118-.86-.322-1.807-.538-2.81-.529-2.457-1.123-5.219-.762-8.067-.317-2.953-.305-6.237.037-9.772.187-1.926.43-3.793.724-5.575-2.45-2.22-3.914-5.223-4.877-7.198-1.958-4.017-3.194-8.781-3.391-13.07-.277-6.009 1.47-10.852 5.049-14.005 1.291-1.138 2.836-1.74 4.467-1.74 1.72 0 3.399.65 4.99 1.933.841.677 1.53 1.43 2.056 2.09 1.748-2.92 3.765-5.406 6.033-7.43 3.066-2.738 6.56-4.623 10.407-5.618l.346-.472a101.23 101.23 0 012.47-3.22c1.116-1.394 2.098-2.525 2.918-3.362 1.315-1.341 2.8-2.582 4.746-2.582z" class="cls-33"/></g></g></g></svg>