<svg xmlns="http://www.w3.org/2000/svg" width="85.909" height="85.909"><defs><style>.cls-1{fill:#e17f16}.cls-5{fill:#ffeb95}.cls-4{fill:#ff9c36}.cls-9{fill:#fff}</style></defs><g id="btn_yes" transform="translate(-2479.634 -332.203)"><g id="Group_887" data-name="Group 887"><circle id="Ellipse_23" cx="37.44" cy="37.44" r="37.44" class="cls-1" data-name="Ellipse 23" transform="rotate(-80.783 1478.482 -1254.16)"/><path id="Path_1175" d="M2522.509 408.773a37.339 37.339 0 1137.572-37.105 37.343 37.343 0 01-37.572 37.105z" data-name="Path 1175" fill="#ffb336"/><path id="Path_1176" d="M2499.315 343.231c-6.892 5.655.275 12.762 5.432 8.229 1.106-.971 7.905-6.645 16.795-6.961a25.641 25.641 0 0117.006 5.239c3.74 2.875 10.286-3.187 5.34-7.711a37.084 37.084 0 00-21.574-6.76 37.991 37.991 0 00-22.999 7.964z" data-name="Path 1176" style="isolation:isolate;mix-blend-mode:overlay" opacity=".3" fill="#ffeb95"/><path id="Path_1177" d="M2522.582 397.008A26.253 26.253 0 112549 370.919a26.256 26.256 0 01-26.418 26.089z" class="cls-4" data-name="Path 1177"/><path id="Path_1178" d="M2522.89 347.789a26.25 26.25 0 0126.041 24.771c.037-.542.062-1.089.066-1.641a26.253 26.253 0 00-52.5-.327c0 .552.018 1.1.047 1.642a26.251 26.251 0 0126.346-24.445z" class="cls-1" data-name="Path 1178"/><path id="Path_1179" d="M2522.966 335.464a37.339 37.339 0 0137.1 36.888c.007-.228.013-.455.015-.684a37.341 37.341 0 00-74.68-.467c0 .229 0 .457.006.685a37.34 37.34 0 0137.559-36.422z" class="cls-5" data-name="Path 1179"/><path id="Path_1180" d="M2522.582 397.008a26.25 26.25 0 01-26.069-25.459c-.014.319-.03.637-.032.959a26.253 26.253 0 0052.5.328c0-.322-.008-.641-.019-.959a26.247 26.247 0 01-26.38 25.131z" class="cls-5" data-name="Path 1180"/><path id="Path_1181" d="M2522.612 396.918c-14.572-.092-26.316-11.388-26.229-25.233s11.97-24.993 26.542-24.9 26.314 11.389 26.228 25.232-11.97 24.991-26.541 24.901z" class="cls-4" data-name="Path 1181"/><path id="Path_1182" d="M2522.669 383.046c-15.1-.1-28.516-5.721-37.162-14.411-.063.848-.1 1.7-.106 2.566a37.341 37.341 0 0074.68.467q.007-1.295-.074-2.567c-8.752 8.583-22.239 14.04-37.338 13.945z" data-name="Path 1182" style="mix-blend-mode:color-burn;isolation:isolate" opacity=".1"/></g><g id="Group_888" data-name="Group 888"><path id="Path_1183" d="M2540.263 361.008c-2.432-2.432-6.6-2.207-9.312.5l-13.335 13.334-3.885-3.885c-2.709-2.711-6.878-2.936-9.31-.5s-2.209 6.6.5 9.312l7.782 7.782c2.71 2.709 6.879 2.935 9.311.5.082-.08.151-.168.225-.252.142-.121.281-.246.415-.379l17.1-17.1c2.716-2.711 2.94-6.88.509-9.312z" data-name="Path 1183" fill="#d16a09"/><path id="Path_1184" d="M2540.263 357.7c-2.432-2.432-6.6-2.208-9.312.5l-13.335 13.333-3.885-3.885c-2.709-2.71-6.878-2.935-9.31-.5s-2.209 6.6.5 9.313l7.782 7.781c2.71 2.711 6.879 2.936 9.311.5.082-.08.151-.168.225-.252.142-.123.281-.246.415-.381l17.1-17.1c2.716-2.702 2.94-6.872.509-9.309z" data-name="Path 1184" fill="#f2e6c9"/><path id="Path_1185" d="M2504.451 369.147a2.4 2.4 0 102.4-2.4 2.4 2.4 0 00-2.4 2.4z" class="cls-9" data-name="Path 1185"/><path id="Path_1186" d="M2504.421 368.621c2.432-2.431 6.6-2.207 9.31.5l3.885 3.885 13.335-13.334c2.71-2.711 6.88-2.936 9.312-.5a5.766 5.766 0 011.638 3.46 5.949 5.949 0 00-1.638-4.928c-2.432-2.432-6.6-2.208-9.312.5l-13.335 13.333-3.885-3.885c-2.709-2.71-6.878-2.935-9.31-.5a5.959 5.959 0 00-1.64 4.93 5.783 5.783 0 011.64-3.461z" class="cls-9" data-name="Path 1186"/></g></g></svg>