<svg xmlns="http://www.w3.org/2000/svg" width="74.934" height="78.503" viewBox="0 0 74.934 78.503">
    <defs>
        <style>
            .cls-1{fill:#e17f16}.cls-2{fill:#ffb336}.cls-3,.cls-5{fill:#ffeb95}.cls-3{opacity:.3;mix-blend-mode:overlay}.cls-3,.cls-6{isolation:isolate}.cls-4{fill:#ff9c36}.cls-6{opacity:.1;mix-blend-mode:color-burn}.cls-7{fill:#d16a09}.cls-8{fill:#f2e6c9}.cls-9{fill:#fff}
        </style>
    </defs>
    <g id="btn_no" transform="translate(-2588.668 -334.095)">
        <g id="Group_890" data-name="Group 890">
            <path id="Path_1187" d="M2663.548 375.157a37.44 37.44 0 1 1-37.44-37.44 37.441 37.441 0 0 1 37.44 37.44z" class="cls-1" data-name="Path 1187"/>
            <path id="Path_1188" d="M2626.029 408.773a37.339 37.339 0 1 1 37.572-37.105 37.339 37.339 0 0 1-37.572 37.105z" class="cls-2" data-name="Path 1188"/>
            <path id="Path_1189" d="M2602.835 343.231c-6.891 5.655.275 12.762 5.432 8.229 1.106-.971 7.906-6.645 16.8-6.961a25.642 25.642 0 0 1 17.005 5.239c3.74 2.875 10.285-3.187 5.339-7.711a37.084 37.084 0 0 0-21.574-6.76 38 38 0 0 0-23.002 7.964z" class="cls-3" data-name="Path 1189"/>
            <path id="Path_1190" d="M2626.1 397.008a26.253 26.253 0 1 1 26.414-26.089 26.253 26.253 0 0 1-26.414 26.089z" class="cls-4" data-name="Path 1190"/>
            <path id="Path_1191" d="M2626.409 347.789a26.25 26.25 0 0 1 26.042 24.771c.037-.542.063-1.089.066-1.641a26.252 26.252 0 1 0-52.5-.327c0 .552.015 1.1.045 1.642a26.252 26.252 0 0 1 26.347-24.445z" class="cls-1" data-name="Path 1191"/>
            <path id="Path_1192" d="M2626.486 335.464a37.339 37.339 0 0 1 37.1 36.888c.006-.228.012-.455.014-.684a37.34 37.34 0 0 0-74.678-.467v.685a37.341 37.341 0 0 1 37.564-36.422z" class="cls-5" data-name="Path 1192"/>
            <path id="Path_1193" d="M2626.1 397.008a26.248 26.248 0 0 1-26.069-25.459c-.013.319-.029.637-.031.959a26.251 26.251 0 1 0 52.5.328c0-.322-.008-.641-.018-.959a26.248 26.248 0 0 1-26.382 25.131z" class="cls-5" data-name="Path 1193"/>
            <path id="Path_1194" d="M2626.132 396.918c-14.572-.092-26.315-11.388-26.229-25.233s11.971-24.993 26.542-24.9 26.316 11.389 26.229 25.232-11.974 24.991-26.542 24.901z" class="cls-4" data-name="Path 1194"/>
            <path id="Path_1195" d="M2626.19 383.046c-15.1-.1-28.517-5.721-37.162-14.411-.062.848-.1 1.7-.1 2.566a37.34 37.34 0 0 0 74.678.467q.007-1.295-.075-2.567c-8.756 8.583-22.243 14.04-37.341 13.945z" class="cls-6" data-name="Path 1195"/>
        </g>
        <g id="Group_891" data-name="Group 891">
            <path id="Path_1196" d="M2636.085 373.69l4.749-4.75c2.889-2.888 3.128-7.332.536-9.924s-7.035-2.352-9.925.537l-4.75 4.75-4.75-4.75c-2.889-2.889-7.333-3.13-9.924-.537s-2.353 7.036.537 9.924l4.75 4.75-4.75 4.75c-2.89 2.89-3.13 7.333-.537 9.925s7.035 2.354 9.924-.537l4.75-4.75 4.75 4.75c2.89 2.891 7.333 3.129 9.925.537s2.353-7.035-.536-9.925z" class="cls-7" data-name="Path 1196"/>
            <path id="Path_1197" d="M2636.085 370.662l4.749-4.75c2.889-2.889 3.128-7.332.536-9.925s-7.035-2.352-9.925.536l-4.75 4.75-4.75-4.75c-2.889-2.888-7.333-3.128-9.924-.536s-2.353 7.036.537 9.925l4.75 4.75-4.75 4.75c-2.89 2.889-3.13 7.332-.537 9.926s7.035 2.353 9.924-.537l4.75-4.75 4.75 4.75c2.89 2.89 7.333 3.129 9.925.537s2.353-7.037-.536-9.926z" class="cls-8" data-name="Path 1197"/>
            <path id="Path_1198" d="M2612.063 358a2.345 2.345 0 1 0 2.345-2.345 2.346 2.346 0 0 0-2.345 2.345z" class="cls-9" data-name="Path 1198"/>
            <path id="Path_1199" d="M2612.021 357.639c2.591-2.593 7.035-2.352 9.924.537l4.75 4.75 4.75-4.75c2.89-2.889 7.333-3.13 9.925-.537a6.155 6.155 0 0 1 1.742 3.641 6.35 6.35 0 0 0-1.742-5.293c-2.592-2.592-7.035-2.352-9.925.536l-4.75 4.75-4.75-4.75c-2.889-2.888-7.333-3.128-9.924-.536a6.35 6.35 0 0 0-1.743 5.293 6.156 6.156 0 0 1 1.743-3.641z" class="cls-9" data-name="Path 1199"/>
            <path id="Path_1200" d="M2636.088 370.66l-.825.826 5.571 5.578a7.854 7.854 0 0 1 2.278 4.631 7.656 7.656 0 0 0-2.278-6.283z" class="cls-9" data-name="Path 1200"/>
            <path id="Path_1201" d="M2612.558 377.064l5.576-5.576-.826-.826-4.75 4.75a7.657 7.657 0 0 0-2.28 6.284 7.857 7.857 0 0 1 2.28-4.632z" class="cls-9" data-name="Path 1201"/>
        </g>
    </g>
</svg>
